M48
; DRILL file {KiCad (5.1.4)-1} date 04.01.2020 17:55:19
; FORMAT={-:-/ absolute / inch / decimal}
; #@! TF.CreationDate,2020-01-04T17:55:19+01:00
; #@! TF.GenerationSoftware,Kicad,Pcbnew,(5.1.4)-1
; #@! TF.FileFunction,Plated,1,2,PTH
FMAT,2
INCH
T1C0.0157
T2C0.0236
T3C0.0394
%
G90
G05
T1
X4.4699Y-4.4999
X4.5024Y-4.7
X4.56Y-3.95
X4.595Y-3.615
X4.69Y-2.9
X4.695Y-3.19
X4.7Y-3.23
X4.74Y-2.825
X5.225Y-3.975
X5.255Y-2.835
X5.285Y-2.865
X5.41Y-4.7
X5.4976Y-4.9
T2
X4.5024Y-2.5917
X4.5024Y-2.6417
X4.5024Y-2.6917
X4.5024Y-2.7417
X4.5024Y-2.7917
X4.5024Y-2.95
X4.5024Y-3.0
X4.5024Y-3.05
X4.5024Y-3.1
X4.5024Y-3.15
X4.5024Y-3.3083
X4.5024Y-3.3583
X4.5024Y-3.4083
X4.5024Y-3.4583
X4.5024Y-3.5083
X4.6024Y-2.5917
X4.6024Y-2.6417
X4.6024Y-2.6917
X4.6024Y-2.7417
X4.6024Y-2.7917
X4.6024Y-2.95
X4.6024Y-3.0
X4.6024Y-3.05
X4.6024Y-3.1
X4.6024Y-3.15
X4.6024Y-3.3083
X4.6024Y-3.3583
X4.6024Y-3.4083
X4.6024Y-3.4583
X4.6024Y-3.5083
X5.3976Y-2.5917
X5.3976Y-2.6417
X5.3976Y-2.6917
X5.3976Y-2.7417
X5.3976Y-2.7917
X5.3976Y-2.95
X5.3976Y-3.0
X5.3976Y-3.05
X5.3976Y-3.1
X5.3976Y-3.15
X5.3976Y-3.3083
X5.3976Y-3.3583
X5.3976Y-3.4083
X5.3976Y-3.4583
X5.3976Y-3.5083
X5.4976Y-2.5917
X5.4976Y-2.6417
X5.4976Y-2.6917
X5.4976Y-2.7417
X5.4976Y-2.7917
X5.4976Y-2.95
X5.4976Y-3.0
X5.4976Y-3.05
X5.4976Y-3.1
X5.4976Y-3.15
X5.4976Y-3.3083
X5.4976Y-3.3583
X5.4976Y-3.4083
X5.4976Y-3.4583
X5.4976Y-3.5083
T3
X5.15Y-2.5
X5.15Y-2.6
X5.15Y-2.7
X5.15Y-2.8
X5.15Y-2.9
X5.15Y-3.0
X5.15Y-3.1
X5.15Y-3.2
X5.15Y-3.3
X5.15Y-3.4
X5.15Y-3.5
X5.15Y-3.6
X5.15Y-3.7
X5.15Y-3.8
X5.15Y-3.9
X5.15Y-4.0
X5.15Y-4.1
X5.15Y-4.2
X5.15Y-4.3
X5.15Y-4.4
X5.15Y-4.5
X5.15Y-4.6
X5.15Y-4.7
X5.15Y-4.8
X5.15Y-4.9
X4.85Y-2.5
X4.85Y-2.6
X4.85Y-2.7
X4.85Y-2.8
X4.85Y-2.9
X4.85Y-3.0
X4.85Y-3.1
X4.85Y-3.2
X4.85Y-3.3
X4.85Y-3.4
X4.85Y-3.5
X4.85Y-3.6
X4.85Y-3.7
X4.85Y-3.8
X4.85Y-3.9
X4.85Y-4.0
X4.85Y-4.1
X4.85Y-4.2
X4.85Y-4.3
X4.85Y-4.4
X4.85Y-4.5
X4.85Y-4.6
X4.85Y-4.7
X4.85Y-4.8
X4.85Y-4.9
T0
M30
