G04 #@! TF.GenerationSoftware,KiCad,Pcbnew,(5.1.4)-1*
G04 #@! TF.CreationDate,2020-01-04T17:55:18+01:00*
G04 #@! TF.ProjectId,USBKeyAdapter,5553424b-6579-4416-9461-707465722e6b,1.0*
G04 #@! TF.SameCoordinates,Original*
G04 #@! TF.FileFunction,Legend,Bot*
G04 #@! TF.FilePolarity,Positive*
%FSLAX46Y46*%
G04 Gerber Fmt 4.6, Leading zero omitted, Abs format (unit mm)*
G04 Created by KiCad (PCBNEW (5.1.4)-1) date 2020-01-04 17:55:18*
%MOMM*%
%LPD*%
G04 APERTURE LIST*
%ADD10C,0.120000*%
%ADD11C,0.150000*%
G04 APERTURE END LIST*
D10*
X124520000Y-62170000D02*
X123190000Y-62170000D01*
X124520000Y-63500000D02*
X124520000Y-62170000D01*
X124520000Y-64770000D02*
X121860000Y-64770000D01*
X121860000Y-64770000D02*
X121860000Y-125790000D01*
X124520000Y-64770000D02*
X124520000Y-125790000D01*
X124520000Y-125790000D02*
X121860000Y-125790000D01*
X132140000Y-125790000D02*
X129480000Y-125790000D01*
X132140000Y-64770000D02*
X132140000Y-125790000D01*
X129480000Y-64770000D02*
X129480000Y-125790000D01*
X132140000Y-64770000D02*
X129480000Y-64770000D01*
X132140000Y-63500000D02*
X132140000Y-62170000D01*
X132140000Y-62170000D02*
X130810000Y-62170000D01*
D11*
X123999523Y-60622380D02*
X123332857Y-61622380D01*
X123332857Y-60622380D02*
X123999523Y-61622380D01*
X122428095Y-61622380D02*
X122999523Y-61622380D01*
X122713809Y-61622380D02*
X122713809Y-60622380D01*
X122809047Y-60765238D01*
X122904285Y-60860476D01*
X122999523Y-60908095D01*
X131619523Y-60622380D02*
X130952857Y-61622380D01*
X130952857Y-60622380D02*
X131619523Y-61622380D01*
X130619523Y-60717619D02*
X130571904Y-60670000D01*
X130476666Y-60622380D01*
X130238571Y-60622380D01*
X130143333Y-60670000D01*
X130095714Y-60717619D01*
X130048095Y-60812857D01*
X130048095Y-60908095D01*
X130095714Y-61050952D01*
X130667142Y-61622380D01*
X130048095Y-61622380D01*
M02*
