G04 #@! TF.GenerationSoftware,KiCad,Pcbnew,(5.1.4)-1*
G04 #@! TF.CreationDate,2020-01-04T17:55:17+01:00*
G04 #@! TF.ProjectId,USBKeyAdapter,5553424b-6579-4416-9461-707465722e6b,1.0*
G04 #@! TF.SameCoordinates,Original*
G04 #@! TF.FileFunction,Copper,L2,Bot*
G04 #@! TF.FilePolarity,Positive*
%FSLAX46Y46*%
G04 Gerber Fmt 4.6, Leading zero omitted, Abs format (unit mm)*
G04 Created by KiCad (PCBNEW (5.1.4)-1) date 2020-01-04 17:55:17*
%MOMM*%
%LPD*%
G04 APERTURE LIST*
%ADD10C,0.300000*%
%ADD11R,1.000000X1.000000*%
%ADD12C,1.000000*%
%ADD13O,1.700000X1.700000*%
%ADD14R,1.700000X1.700000*%
%ADD15C,0.800000*%
%ADD16C,0.250000*%
%ADD17C,0.254000*%
G04 APERTURE END LIST*
D10*
X118094000Y-126892857D02*
X117879714Y-126964285D01*
X117808285Y-127035714D01*
X117736857Y-127178571D01*
X117736857Y-127392857D01*
X117808285Y-127535714D01*
X117879714Y-127607142D01*
X118022571Y-127678571D01*
X118594000Y-127678571D01*
X118594000Y-126178571D01*
X118094000Y-126178571D01*
X117951142Y-126250000D01*
X117879714Y-126321428D01*
X117808285Y-126464285D01*
X117808285Y-126607142D01*
X117879714Y-126750000D01*
X117951142Y-126821428D01*
X118094000Y-126892857D01*
X118594000Y-126892857D01*
X116879714Y-127678571D02*
X117022571Y-127607142D01*
X117094000Y-127535714D01*
X117165428Y-127392857D01*
X117165428Y-126964285D01*
X117094000Y-126821428D01*
X117022571Y-126750000D01*
X116879714Y-126678571D01*
X116665428Y-126678571D01*
X116522571Y-126750000D01*
X116451142Y-126821428D01*
X116379714Y-126964285D01*
X116379714Y-127392857D01*
X116451142Y-127535714D01*
X116522571Y-127607142D01*
X116665428Y-127678571D01*
X116879714Y-127678571D01*
X115951142Y-126678571D02*
X115379714Y-126678571D01*
X115736857Y-126178571D02*
X115736857Y-127464285D01*
X115665428Y-127607142D01*
X115522571Y-127678571D01*
X115379714Y-127678571D01*
D11*
X114360000Y-65830000D03*
D12*
X114360000Y-67100000D03*
X114360000Y-68370000D03*
X114360000Y-69640000D03*
X114360000Y-70910000D03*
X116900000Y-65830000D03*
X116900000Y-67100000D03*
X116900000Y-68370000D03*
X116900000Y-69640000D03*
X116900000Y-70910000D03*
X116900000Y-74930000D03*
X116900000Y-78740000D03*
X116900000Y-80010000D03*
X116900000Y-77470000D03*
X116900000Y-76200000D03*
X114360000Y-80010000D03*
X114360000Y-77470000D03*
X114360000Y-76200000D03*
D11*
X114360000Y-74930000D03*
D12*
X114360000Y-78740000D03*
X139640000Y-84030000D03*
X139640000Y-87840000D03*
X139640000Y-89110000D03*
X139640000Y-86570000D03*
X139640000Y-85300000D03*
X137100000Y-89110000D03*
X137100000Y-86570000D03*
X137100000Y-85300000D03*
D11*
X137100000Y-84030000D03*
D12*
X137100000Y-87840000D03*
X116900000Y-84030000D03*
X116900000Y-87840000D03*
X116900000Y-89110000D03*
X116900000Y-86570000D03*
X116900000Y-85300000D03*
X114360000Y-89110000D03*
X114360000Y-86570000D03*
X114360000Y-85300000D03*
D11*
X114360000Y-84030000D03*
D12*
X114360000Y-87840000D03*
X139640000Y-65830000D03*
X139640000Y-69640000D03*
X139640000Y-70910000D03*
X139640000Y-68370000D03*
X139640000Y-67100000D03*
X137100000Y-70910000D03*
X137100000Y-68370000D03*
X137100000Y-67100000D03*
D11*
X137100000Y-65830000D03*
D12*
X137100000Y-69640000D03*
X139640000Y-74930000D03*
X139640000Y-78740000D03*
X139640000Y-80010000D03*
X139640000Y-77470000D03*
X139640000Y-76200000D03*
X137100000Y-80010000D03*
X137100000Y-77470000D03*
X137100000Y-76200000D03*
D11*
X137100000Y-74930000D03*
D12*
X137100000Y-78740000D03*
D13*
X123190000Y-124460000D03*
X123190000Y-121920000D03*
X123190000Y-119380000D03*
X123190000Y-116840000D03*
X123190000Y-114300000D03*
X123190000Y-111760000D03*
X123190000Y-109220000D03*
X123190000Y-106680000D03*
X123190000Y-104140000D03*
X123190000Y-101600000D03*
X123190000Y-99060000D03*
X123190000Y-96520000D03*
X123190000Y-93980000D03*
X123190000Y-91440000D03*
X123190000Y-88900000D03*
X123190000Y-86360000D03*
X123190000Y-83820000D03*
X123190000Y-81280000D03*
X123190000Y-78740000D03*
X123190000Y-76200000D03*
X123190000Y-73660000D03*
X123190000Y-71120000D03*
X123190000Y-68580000D03*
X123190000Y-66040000D03*
D14*
X123190000Y-63500000D03*
X130810000Y-63500000D03*
D13*
X130810000Y-66040000D03*
X130810000Y-68580000D03*
X130810000Y-71120000D03*
X130810000Y-73660000D03*
X130810000Y-76200000D03*
X130810000Y-78740000D03*
X130810000Y-81280000D03*
X130810000Y-83820000D03*
X130810000Y-86360000D03*
X130810000Y-88900000D03*
X130810000Y-91440000D03*
X130810000Y-93980000D03*
X130810000Y-96520000D03*
X130810000Y-99060000D03*
X130810000Y-101600000D03*
X130810000Y-104140000D03*
X130810000Y-106680000D03*
X130810000Y-109220000D03*
X130810000Y-111760000D03*
X130810000Y-114300000D03*
X130810000Y-116840000D03*
X130810000Y-119380000D03*
X130810000Y-121920000D03*
X130810000Y-124460000D03*
D15*
X119125962Y-73660000D03*
X120396000Y-71755000D03*
X119380000Y-82042000D03*
X119253000Y-81025996D03*
X137414000Y-119380000D03*
X139640000Y-124460000D03*
X114360000Y-119380000D03*
X115824000Y-100330000D03*
X116713000Y-91821000D03*
X113534999Y-114296999D03*
X133477000Y-72009000D03*
X134239000Y-72771000D03*
X132715000Y-100965000D03*
D16*
X114360000Y-69640000D02*
X118380000Y-73660000D01*
X118380000Y-73660000D02*
X118560277Y-73660000D01*
X118560277Y-73660000D02*
X119125962Y-73660000D01*
X123190000Y-78740000D02*
X120396000Y-75946000D01*
X120396000Y-75946000D02*
X120396000Y-71755000D01*
X122130000Y-67100000D02*
X123190000Y-66040000D01*
X116900000Y-67100000D02*
X122130000Y-67100000D01*
X120440000Y-68370000D02*
X123190000Y-71120000D01*
X116900000Y-68370000D02*
X120440000Y-68370000D01*
X116900000Y-69640000D02*
X119862004Y-69640000D01*
X122340001Y-75350001D02*
X123190000Y-76200000D01*
X119862004Y-69640000D02*
X121629002Y-71406998D01*
X121629002Y-71406998D02*
X121629002Y-74639002D01*
X121629002Y-74639002D02*
X122340001Y-75350001D01*
X116900000Y-70910000D02*
X118027000Y-70910000D01*
X119888000Y-77978000D02*
X123190000Y-81280000D01*
X119888000Y-72771000D02*
X119888000Y-77978000D01*
X118027000Y-70910000D02*
X119888000Y-72771000D01*
X114360000Y-80010000D02*
X114808000Y-80010000D01*
X122340001Y-98210001D02*
X123190000Y-99060000D01*
X120396000Y-96266000D02*
X122340001Y-98210001D01*
X120396000Y-85598000D02*
X120396000Y-96266000D01*
X114808000Y-80010000D02*
X120396000Y-85598000D01*
X121793000Y-87503000D02*
X121793000Y-84455000D01*
X123190000Y-88900000D02*
X121793000Y-87503000D01*
X121793000Y-84455000D02*
X119380000Y-82042000D01*
X120395996Y-81025996D02*
X119818685Y-81025996D01*
X123190000Y-83820000D02*
X120395996Y-81025996D01*
X119818685Y-81025996D02*
X119253000Y-81025996D01*
X122340001Y-93130001D02*
X123190000Y-93980000D01*
X121158000Y-91948000D02*
X122340001Y-93130001D01*
X114360000Y-78740000D02*
X121158000Y-85538000D01*
X121158000Y-85538000D02*
X121158000Y-91948000D01*
X132012081Y-119380000D02*
X137414000Y-119380000D01*
X130810000Y-119380000D02*
X132012081Y-119380000D01*
X130810000Y-124460000D02*
X139640000Y-124460000D01*
X132334000Y-112776000D02*
X130810000Y-114300000D01*
X138932894Y-86570000D02*
X138375011Y-87127883D01*
X139640000Y-86570000D02*
X138932894Y-86570000D01*
X138375011Y-87127883D02*
X138375011Y-106734989D01*
X132334000Y-110490000D02*
X132334000Y-112776000D01*
X138375011Y-106734989D02*
X135382000Y-109728000D01*
X135382000Y-109728000D02*
X133096000Y-109728000D01*
X133096000Y-109728000D02*
X132334000Y-110490000D01*
X135001000Y-109220000D02*
X130810000Y-109220000D01*
X137925001Y-106295999D02*
X135001000Y-109220000D01*
X137925001Y-86307893D02*
X137925001Y-106295999D01*
X139640000Y-85300000D02*
X138932894Y-85300000D01*
X138932894Y-85300000D02*
X137925001Y-86307893D01*
X114360000Y-119380000D02*
X123190000Y-119380000D01*
X114360000Y-119380000D02*
X114360000Y-119380000D01*
X114360000Y-86570000D02*
X114360000Y-86618998D01*
X115824000Y-101854000D02*
X115824000Y-100895685D01*
X123190000Y-109220000D02*
X115824000Y-101854000D01*
X115824000Y-100895685D02*
X115824000Y-100330000D01*
X116713000Y-92386685D02*
X116713000Y-91821000D01*
X116713000Y-97663000D02*
X116713000Y-92386685D01*
X123190000Y-104140000D02*
X116713000Y-97663000D01*
X123186999Y-114296999D02*
X123190000Y-114300000D01*
X113534999Y-114296999D02*
X123186999Y-114296999D01*
X137271000Y-72009000D02*
X134042685Y-72009000D01*
X139640000Y-69640000D02*
X137271000Y-72009000D01*
X134042685Y-72009000D02*
X133477000Y-72009000D01*
X134804685Y-72771000D02*
X134239000Y-72771000D01*
X137779000Y-72771000D02*
X134804685Y-72771000D01*
X139640000Y-70910000D02*
X137779000Y-72771000D01*
X136392894Y-70910000D02*
X137100000Y-70910000D01*
X133502996Y-70910000D02*
X136392894Y-70910000D01*
X130810000Y-81280000D02*
X132624987Y-79465013D01*
X132624987Y-79465013D02*
X132624987Y-71788009D01*
X132624987Y-71788009D02*
X133502996Y-70910000D01*
X133560000Y-68370000D02*
X130810000Y-71120000D01*
X137100000Y-68370000D02*
X133560000Y-68370000D01*
X131870000Y-67100000D02*
X130810000Y-66040000D01*
X137100000Y-67100000D02*
X131870000Y-67100000D01*
X130810000Y-76200000D02*
X132174978Y-74835022D01*
X132174978Y-74835022D02*
X132174978Y-71279022D01*
X136392894Y-69640000D02*
X137100000Y-69640000D01*
X132174978Y-71279022D02*
X133814000Y-69640000D01*
X133814000Y-69640000D02*
X136392894Y-69640000D01*
X138176000Y-80391000D02*
X138176000Y-79121000D01*
X137287000Y-81280000D02*
X138176000Y-80391000D01*
X134620000Y-81280000D02*
X137287000Y-81280000D01*
X134366006Y-81533994D02*
X134620000Y-81280000D01*
X132715000Y-100965000D02*
X134366006Y-99313994D01*
X134366006Y-99313994D02*
X134366006Y-81533994D01*
X138176000Y-79121000D02*
X138557000Y-78740000D01*
X138557000Y-78740000D02*
X139640000Y-78740000D01*
X134874000Y-100076000D02*
X130810000Y-104140000D01*
X134874000Y-82042000D02*
X134874000Y-100076000D01*
X135185990Y-81730010D02*
X134874000Y-82042000D01*
X137473400Y-81730010D02*
X135185990Y-81730010D01*
X139640000Y-80010000D02*
X139193410Y-80010000D01*
X139193410Y-80010000D02*
X137473400Y-81730010D01*
X133673010Y-98736990D02*
X130810000Y-101600000D01*
X133673010Y-81083990D02*
X133673010Y-98736990D01*
X137100000Y-80010000D02*
X134747000Y-80010000D01*
X134747000Y-80010000D02*
X133673010Y-81083990D01*
X136014178Y-77470000D02*
X132772988Y-80711190D01*
X131659999Y-90590001D02*
X130810000Y-91440000D01*
X137100000Y-77470000D02*
X136014178Y-77470000D01*
X132772988Y-80711190D02*
X132772988Y-89477012D01*
X132772988Y-89477012D02*
X131659999Y-90590001D01*
X136147768Y-76699999D02*
X132264989Y-80582778D01*
X132264989Y-80582778D02*
X132264989Y-84905011D01*
X131659999Y-85510001D02*
X130810000Y-86360000D01*
X132264989Y-84905011D02*
X131659999Y-85510001D01*
X136600001Y-76699999D02*
X136147768Y-76699999D01*
X137100000Y-76200000D02*
X136600001Y-76699999D01*
X133222999Y-94107001D02*
X131659999Y-95670001D01*
X131659999Y-95670001D02*
X130810000Y-96520000D01*
X133222999Y-80897590D02*
X133222999Y-94107001D01*
X137100000Y-78740000D02*
X135380589Y-78740000D01*
X135380589Y-78740000D02*
X133222999Y-80897590D01*
D17*
G36*
X141115001Y-130115000D02*
G01*
X112885000Y-130115000D01*
X112885000Y-125210000D01*
X114451857Y-125210000D01*
X114451857Y-129030000D01*
X119736143Y-129030000D01*
X119736143Y-125210000D01*
X114451857Y-125210000D01*
X112885000Y-125210000D01*
X112885000Y-124816890D01*
X121748524Y-124816890D01*
X121793175Y-124964099D01*
X121918359Y-125226920D01*
X122092412Y-125460269D01*
X122308645Y-125655178D01*
X122558748Y-125804157D01*
X122833109Y-125901481D01*
X123063000Y-125780814D01*
X123063000Y-124587000D01*
X123317000Y-124587000D01*
X123317000Y-125780814D01*
X123546891Y-125901481D01*
X123821252Y-125804157D01*
X124071355Y-125655178D01*
X124287588Y-125460269D01*
X124461641Y-125226920D01*
X124586825Y-124964099D01*
X124631476Y-124816890D01*
X124510155Y-124587000D01*
X123317000Y-124587000D01*
X123063000Y-124587000D01*
X121869845Y-124587000D01*
X121748524Y-124816890D01*
X112885000Y-124816890D01*
X112885000Y-115107467D01*
X113044743Y-115214204D01*
X113233101Y-115292225D01*
X113433060Y-115331999D01*
X113636938Y-115331999D01*
X113836897Y-115292225D01*
X114025255Y-115214204D01*
X114194773Y-115100936D01*
X114238710Y-115056999D01*
X121910801Y-115056999D01*
X121949294Y-115129014D01*
X122134866Y-115355134D01*
X122360986Y-115540706D01*
X122415791Y-115570000D01*
X122360986Y-115599294D01*
X122134866Y-115784866D01*
X121949294Y-116010986D01*
X121811401Y-116268966D01*
X121726487Y-116548889D01*
X121697815Y-116840000D01*
X121726487Y-117131111D01*
X121811401Y-117411034D01*
X121949294Y-117669014D01*
X122134866Y-117895134D01*
X122360986Y-118080706D01*
X122415791Y-118110000D01*
X122360986Y-118139294D01*
X122134866Y-118324866D01*
X121949294Y-118550986D01*
X121912405Y-118620000D01*
X115063711Y-118620000D01*
X115019774Y-118576063D01*
X114850256Y-118462795D01*
X114661898Y-118384774D01*
X114461939Y-118345000D01*
X114258061Y-118345000D01*
X114058102Y-118384774D01*
X113869744Y-118462795D01*
X113700226Y-118576063D01*
X113556063Y-118720226D01*
X113442795Y-118889744D01*
X113364774Y-119078102D01*
X113325000Y-119278061D01*
X113325000Y-119481939D01*
X113364774Y-119681898D01*
X113442795Y-119870256D01*
X113556063Y-120039774D01*
X113700226Y-120183937D01*
X113869744Y-120297205D01*
X114058102Y-120375226D01*
X114258061Y-120415000D01*
X114461939Y-120415000D01*
X114661898Y-120375226D01*
X114850256Y-120297205D01*
X115019774Y-120183937D01*
X115063711Y-120140000D01*
X121912405Y-120140000D01*
X121949294Y-120209014D01*
X122134866Y-120435134D01*
X122360986Y-120620706D01*
X122415791Y-120650000D01*
X122360986Y-120679294D01*
X122134866Y-120864866D01*
X121949294Y-121090986D01*
X121811401Y-121348966D01*
X121726487Y-121628889D01*
X121697815Y-121920000D01*
X121726487Y-122211111D01*
X121811401Y-122491034D01*
X121949294Y-122749014D01*
X122134866Y-122975134D01*
X122360986Y-123160706D01*
X122425523Y-123195201D01*
X122308645Y-123264822D01*
X122092412Y-123459731D01*
X121918359Y-123693080D01*
X121793175Y-123955901D01*
X121748524Y-124103110D01*
X121869845Y-124333000D01*
X123063000Y-124333000D01*
X123063000Y-124313000D01*
X123317000Y-124313000D01*
X123317000Y-124333000D01*
X124510155Y-124333000D01*
X124631476Y-124103110D01*
X124586825Y-123955901D01*
X124461641Y-123693080D01*
X124287588Y-123459731D01*
X124071355Y-123264822D01*
X123954477Y-123195201D01*
X124019014Y-123160706D01*
X124245134Y-122975134D01*
X124430706Y-122749014D01*
X124568599Y-122491034D01*
X124653513Y-122211111D01*
X124682185Y-121920000D01*
X124653513Y-121628889D01*
X124568599Y-121348966D01*
X124430706Y-121090986D01*
X124245134Y-120864866D01*
X124019014Y-120679294D01*
X123964209Y-120650000D01*
X124019014Y-120620706D01*
X124245134Y-120435134D01*
X124430706Y-120209014D01*
X124568599Y-119951034D01*
X124653513Y-119671111D01*
X124682185Y-119380000D01*
X124653513Y-119088889D01*
X124568599Y-118808966D01*
X124430706Y-118550986D01*
X124245134Y-118324866D01*
X124019014Y-118139294D01*
X123964209Y-118110000D01*
X124019014Y-118080706D01*
X124245134Y-117895134D01*
X124430706Y-117669014D01*
X124568599Y-117411034D01*
X124653513Y-117131111D01*
X124682185Y-116840000D01*
X124653513Y-116548889D01*
X124568599Y-116268966D01*
X124430706Y-116010986D01*
X124245134Y-115784866D01*
X124019014Y-115599294D01*
X123964209Y-115570000D01*
X124019014Y-115540706D01*
X124245134Y-115355134D01*
X124430706Y-115129014D01*
X124568599Y-114871034D01*
X124653513Y-114591111D01*
X124682185Y-114300000D01*
X124653513Y-114008889D01*
X124568599Y-113728966D01*
X124430706Y-113470986D01*
X124245134Y-113244866D01*
X124019014Y-113059294D01*
X123964209Y-113030000D01*
X124019014Y-113000706D01*
X124245134Y-112815134D01*
X124430706Y-112589014D01*
X124568599Y-112331034D01*
X124653513Y-112051111D01*
X124682185Y-111760000D01*
X124653513Y-111468889D01*
X124568599Y-111188966D01*
X124430706Y-110930986D01*
X124245134Y-110704866D01*
X124019014Y-110519294D01*
X123964209Y-110490000D01*
X124019014Y-110460706D01*
X124245134Y-110275134D01*
X124430706Y-110049014D01*
X124568599Y-109791034D01*
X124653513Y-109511111D01*
X124682185Y-109220000D01*
X124653513Y-108928889D01*
X124568599Y-108648966D01*
X124430706Y-108390986D01*
X124245134Y-108164866D01*
X124019014Y-107979294D01*
X123964209Y-107950000D01*
X124019014Y-107920706D01*
X124245134Y-107735134D01*
X124430706Y-107509014D01*
X124568599Y-107251034D01*
X124653513Y-106971111D01*
X124682185Y-106680000D01*
X124653513Y-106388889D01*
X124568599Y-106108966D01*
X124430706Y-105850986D01*
X124245134Y-105624866D01*
X124019014Y-105439294D01*
X123964209Y-105410000D01*
X124019014Y-105380706D01*
X124245134Y-105195134D01*
X124430706Y-104969014D01*
X124568599Y-104711034D01*
X124653513Y-104431111D01*
X124682185Y-104140000D01*
X124653513Y-103848889D01*
X124568599Y-103568966D01*
X124430706Y-103310986D01*
X124245134Y-103084866D01*
X124019014Y-102899294D01*
X123964209Y-102870000D01*
X124019014Y-102840706D01*
X124245134Y-102655134D01*
X124430706Y-102429014D01*
X124568599Y-102171034D01*
X124653513Y-101891111D01*
X124682185Y-101600000D01*
X124653513Y-101308889D01*
X124568599Y-101028966D01*
X124430706Y-100770986D01*
X124245134Y-100544866D01*
X124019014Y-100359294D01*
X123964209Y-100330000D01*
X124019014Y-100300706D01*
X124245134Y-100115134D01*
X124430706Y-99889014D01*
X124568599Y-99631034D01*
X124653513Y-99351111D01*
X124682185Y-99060000D01*
X124653513Y-98768889D01*
X124568599Y-98488966D01*
X124430706Y-98230986D01*
X124245134Y-98004866D01*
X124019014Y-97819294D01*
X123964209Y-97790000D01*
X124019014Y-97760706D01*
X124245134Y-97575134D01*
X124430706Y-97349014D01*
X124568599Y-97091034D01*
X124653513Y-96811111D01*
X124682185Y-96520000D01*
X124653513Y-96228889D01*
X124568599Y-95948966D01*
X124430706Y-95690986D01*
X124245134Y-95464866D01*
X124019014Y-95279294D01*
X123964209Y-95250000D01*
X124019014Y-95220706D01*
X124245134Y-95035134D01*
X124430706Y-94809014D01*
X124568599Y-94551034D01*
X124653513Y-94271111D01*
X124682185Y-93980000D01*
X124653513Y-93688889D01*
X124568599Y-93408966D01*
X124430706Y-93150986D01*
X124245134Y-92924866D01*
X124019014Y-92739294D01*
X123964209Y-92710000D01*
X124019014Y-92680706D01*
X124245134Y-92495134D01*
X124430706Y-92269014D01*
X124568599Y-92011034D01*
X124653513Y-91731111D01*
X124682185Y-91440000D01*
X124653513Y-91148889D01*
X124568599Y-90868966D01*
X124430706Y-90610986D01*
X124245134Y-90384866D01*
X124019014Y-90199294D01*
X123964209Y-90170000D01*
X124019014Y-90140706D01*
X124245134Y-89955134D01*
X124430706Y-89729014D01*
X124568599Y-89471034D01*
X124653513Y-89191111D01*
X124682185Y-88900000D01*
X124653513Y-88608889D01*
X124568599Y-88328966D01*
X124430706Y-88070986D01*
X124245134Y-87844866D01*
X124019014Y-87659294D01*
X123964209Y-87630000D01*
X124019014Y-87600706D01*
X124245134Y-87415134D01*
X124430706Y-87189014D01*
X124568599Y-86931034D01*
X124653513Y-86651111D01*
X124682185Y-86360000D01*
X124653513Y-86068889D01*
X124568599Y-85788966D01*
X124430706Y-85530986D01*
X124245134Y-85304866D01*
X124019014Y-85119294D01*
X123964209Y-85090000D01*
X124019014Y-85060706D01*
X124245134Y-84875134D01*
X124430706Y-84649014D01*
X124568599Y-84391034D01*
X124653513Y-84111111D01*
X124682185Y-83820000D01*
X124653513Y-83528889D01*
X124568599Y-83248966D01*
X124430706Y-82990986D01*
X124245134Y-82764866D01*
X124019014Y-82579294D01*
X123964209Y-82550000D01*
X124019014Y-82520706D01*
X124245134Y-82335134D01*
X124430706Y-82109014D01*
X124568599Y-81851034D01*
X124653513Y-81571111D01*
X124682185Y-81280000D01*
X124653513Y-80988889D01*
X124568599Y-80708966D01*
X124430706Y-80450986D01*
X124245134Y-80224866D01*
X124019014Y-80039294D01*
X123964209Y-80010000D01*
X124019014Y-79980706D01*
X124245134Y-79795134D01*
X124430706Y-79569014D01*
X124568599Y-79311034D01*
X124653513Y-79031111D01*
X124682185Y-78740000D01*
X124653513Y-78448889D01*
X124568599Y-78168966D01*
X124430706Y-77910986D01*
X124245134Y-77684866D01*
X124019014Y-77499294D01*
X123964209Y-77470000D01*
X124019014Y-77440706D01*
X124245134Y-77255134D01*
X124430706Y-77029014D01*
X124568599Y-76771034D01*
X124653513Y-76491111D01*
X124682185Y-76200000D01*
X124653513Y-75908889D01*
X124568599Y-75628966D01*
X124430706Y-75370986D01*
X124245134Y-75144866D01*
X124019014Y-74959294D01*
X123964209Y-74930000D01*
X124019014Y-74900706D01*
X124245134Y-74715134D01*
X124430706Y-74489014D01*
X124568599Y-74231034D01*
X124653513Y-73951111D01*
X124682185Y-73660000D01*
X124653513Y-73368889D01*
X124568599Y-73088966D01*
X124430706Y-72830986D01*
X124245134Y-72604866D01*
X124019014Y-72419294D01*
X123964209Y-72390000D01*
X124019014Y-72360706D01*
X124245134Y-72175134D01*
X124430706Y-71949014D01*
X124568599Y-71691034D01*
X124653513Y-71411111D01*
X124682185Y-71120000D01*
X124653513Y-70828889D01*
X124568599Y-70548966D01*
X124430706Y-70290986D01*
X124245134Y-70064866D01*
X124019014Y-69879294D01*
X123964209Y-69850000D01*
X124019014Y-69820706D01*
X124245134Y-69635134D01*
X124430706Y-69409014D01*
X124568599Y-69151034D01*
X124653513Y-68871111D01*
X124682185Y-68580000D01*
X124653513Y-68288889D01*
X124568599Y-68008966D01*
X124430706Y-67750986D01*
X124245134Y-67524866D01*
X124019014Y-67339294D01*
X123964209Y-67310000D01*
X124019014Y-67280706D01*
X124245134Y-67095134D01*
X124430706Y-66869014D01*
X124568599Y-66611034D01*
X124653513Y-66331111D01*
X124682185Y-66040000D01*
X129317815Y-66040000D01*
X129346487Y-66331111D01*
X129431401Y-66611034D01*
X129569294Y-66869014D01*
X129754866Y-67095134D01*
X129980986Y-67280706D01*
X130035791Y-67310000D01*
X129980986Y-67339294D01*
X129754866Y-67524866D01*
X129569294Y-67750986D01*
X129431401Y-68008966D01*
X129346487Y-68288889D01*
X129317815Y-68580000D01*
X129346487Y-68871111D01*
X129431401Y-69151034D01*
X129569294Y-69409014D01*
X129754866Y-69635134D01*
X129980986Y-69820706D01*
X130035791Y-69850000D01*
X129980986Y-69879294D01*
X129754866Y-70064866D01*
X129569294Y-70290986D01*
X129431401Y-70548966D01*
X129346487Y-70828889D01*
X129317815Y-71120000D01*
X129346487Y-71411111D01*
X129431401Y-71691034D01*
X129569294Y-71949014D01*
X129754866Y-72175134D01*
X129980986Y-72360706D01*
X130035791Y-72390000D01*
X129980986Y-72419294D01*
X129754866Y-72604866D01*
X129569294Y-72830986D01*
X129431401Y-73088966D01*
X129346487Y-73368889D01*
X129317815Y-73660000D01*
X129346487Y-73951111D01*
X129431401Y-74231034D01*
X129569294Y-74489014D01*
X129754866Y-74715134D01*
X129980986Y-74900706D01*
X130035791Y-74930000D01*
X129980986Y-74959294D01*
X129754866Y-75144866D01*
X129569294Y-75370986D01*
X129431401Y-75628966D01*
X129346487Y-75908889D01*
X129317815Y-76200000D01*
X129346487Y-76491111D01*
X129431401Y-76771034D01*
X129569294Y-77029014D01*
X129754866Y-77255134D01*
X129980986Y-77440706D01*
X130035791Y-77470000D01*
X129980986Y-77499294D01*
X129754866Y-77684866D01*
X129569294Y-77910986D01*
X129431401Y-78168966D01*
X129346487Y-78448889D01*
X129317815Y-78740000D01*
X129346487Y-79031111D01*
X129431401Y-79311034D01*
X129569294Y-79569014D01*
X129754866Y-79795134D01*
X129980986Y-79980706D01*
X130035791Y-80010000D01*
X129980986Y-80039294D01*
X129754866Y-80224866D01*
X129569294Y-80450986D01*
X129431401Y-80708966D01*
X129346487Y-80988889D01*
X129317815Y-81280000D01*
X129346487Y-81571111D01*
X129431401Y-81851034D01*
X129569294Y-82109014D01*
X129754866Y-82335134D01*
X129980986Y-82520706D01*
X130035791Y-82550000D01*
X129980986Y-82579294D01*
X129754866Y-82764866D01*
X129569294Y-82990986D01*
X129431401Y-83248966D01*
X129346487Y-83528889D01*
X129317815Y-83820000D01*
X129346487Y-84111111D01*
X129431401Y-84391034D01*
X129569294Y-84649014D01*
X129754866Y-84875134D01*
X129980986Y-85060706D01*
X130035791Y-85090000D01*
X129980986Y-85119294D01*
X129754866Y-85304866D01*
X129569294Y-85530986D01*
X129431401Y-85788966D01*
X129346487Y-86068889D01*
X129317815Y-86360000D01*
X129346487Y-86651111D01*
X129431401Y-86931034D01*
X129569294Y-87189014D01*
X129754866Y-87415134D01*
X129980986Y-87600706D01*
X130035791Y-87630000D01*
X129980986Y-87659294D01*
X129754866Y-87844866D01*
X129569294Y-88070986D01*
X129431401Y-88328966D01*
X129346487Y-88608889D01*
X129317815Y-88900000D01*
X129346487Y-89191111D01*
X129431401Y-89471034D01*
X129569294Y-89729014D01*
X129754866Y-89955134D01*
X129980986Y-90140706D01*
X130035791Y-90170000D01*
X129980986Y-90199294D01*
X129754866Y-90384866D01*
X129569294Y-90610986D01*
X129431401Y-90868966D01*
X129346487Y-91148889D01*
X129317815Y-91440000D01*
X129346487Y-91731111D01*
X129431401Y-92011034D01*
X129569294Y-92269014D01*
X129754866Y-92495134D01*
X129980986Y-92680706D01*
X130035791Y-92710000D01*
X129980986Y-92739294D01*
X129754866Y-92924866D01*
X129569294Y-93150986D01*
X129431401Y-93408966D01*
X129346487Y-93688889D01*
X129317815Y-93980000D01*
X129346487Y-94271111D01*
X129431401Y-94551034D01*
X129569294Y-94809014D01*
X129754866Y-95035134D01*
X129980986Y-95220706D01*
X130035791Y-95250000D01*
X129980986Y-95279294D01*
X129754866Y-95464866D01*
X129569294Y-95690986D01*
X129431401Y-95948966D01*
X129346487Y-96228889D01*
X129317815Y-96520000D01*
X129346487Y-96811111D01*
X129431401Y-97091034D01*
X129569294Y-97349014D01*
X129754866Y-97575134D01*
X129980986Y-97760706D01*
X130035791Y-97790000D01*
X129980986Y-97819294D01*
X129754866Y-98004866D01*
X129569294Y-98230986D01*
X129431401Y-98488966D01*
X129346487Y-98768889D01*
X129317815Y-99060000D01*
X129346487Y-99351111D01*
X129431401Y-99631034D01*
X129569294Y-99889014D01*
X129754866Y-100115134D01*
X129980986Y-100300706D01*
X130035791Y-100330000D01*
X129980986Y-100359294D01*
X129754866Y-100544866D01*
X129569294Y-100770986D01*
X129431401Y-101028966D01*
X129346487Y-101308889D01*
X129317815Y-101600000D01*
X129346487Y-101891111D01*
X129431401Y-102171034D01*
X129569294Y-102429014D01*
X129754866Y-102655134D01*
X129980986Y-102840706D01*
X130035791Y-102870000D01*
X129980986Y-102899294D01*
X129754866Y-103084866D01*
X129569294Y-103310986D01*
X129431401Y-103568966D01*
X129346487Y-103848889D01*
X129317815Y-104140000D01*
X129346487Y-104431111D01*
X129431401Y-104711034D01*
X129569294Y-104969014D01*
X129754866Y-105195134D01*
X129980986Y-105380706D01*
X130035791Y-105410000D01*
X129980986Y-105439294D01*
X129754866Y-105624866D01*
X129569294Y-105850986D01*
X129431401Y-106108966D01*
X129346487Y-106388889D01*
X129317815Y-106680000D01*
X129346487Y-106971111D01*
X129431401Y-107251034D01*
X129569294Y-107509014D01*
X129754866Y-107735134D01*
X129980986Y-107920706D01*
X130035791Y-107950000D01*
X129980986Y-107979294D01*
X129754866Y-108164866D01*
X129569294Y-108390986D01*
X129431401Y-108648966D01*
X129346487Y-108928889D01*
X129317815Y-109220000D01*
X129346487Y-109511111D01*
X129431401Y-109791034D01*
X129569294Y-110049014D01*
X129754866Y-110275134D01*
X129980986Y-110460706D01*
X130035791Y-110490000D01*
X129980986Y-110519294D01*
X129754866Y-110704866D01*
X129569294Y-110930986D01*
X129431401Y-111188966D01*
X129346487Y-111468889D01*
X129317815Y-111760000D01*
X129346487Y-112051111D01*
X129431401Y-112331034D01*
X129569294Y-112589014D01*
X129754866Y-112815134D01*
X129980986Y-113000706D01*
X130035791Y-113030000D01*
X129980986Y-113059294D01*
X129754866Y-113244866D01*
X129569294Y-113470986D01*
X129431401Y-113728966D01*
X129346487Y-114008889D01*
X129317815Y-114300000D01*
X129346487Y-114591111D01*
X129431401Y-114871034D01*
X129569294Y-115129014D01*
X129754866Y-115355134D01*
X129980986Y-115540706D01*
X130035791Y-115570000D01*
X129980986Y-115599294D01*
X129754866Y-115784866D01*
X129569294Y-116010986D01*
X129431401Y-116268966D01*
X129346487Y-116548889D01*
X129317815Y-116840000D01*
X129346487Y-117131111D01*
X129431401Y-117411034D01*
X129569294Y-117669014D01*
X129754866Y-117895134D01*
X129980986Y-118080706D01*
X130035791Y-118110000D01*
X129980986Y-118139294D01*
X129754866Y-118324866D01*
X129569294Y-118550986D01*
X129431401Y-118808966D01*
X129346487Y-119088889D01*
X129317815Y-119380000D01*
X129346487Y-119671111D01*
X129431401Y-119951034D01*
X129569294Y-120209014D01*
X129754866Y-120435134D01*
X129980986Y-120620706D01*
X130035791Y-120650000D01*
X129980986Y-120679294D01*
X129754866Y-120864866D01*
X129569294Y-121090986D01*
X129431401Y-121348966D01*
X129346487Y-121628889D01*
X129317815Y-121920000D01*
X129346487Y-122211111D01*
X129431401Y-122491034D01*
X129569294Y-122749014D01*
X129754866Y-122975134D01*
X129980986Y-123160706D01*
X130035791Y-123190000D01*
X129980986Y-123219294D01*
X129754866Y-123404866D01*
X129569294Y-123630986D01*
X129431401Y-123888966D01*
X129346487Y-124168889D01*
X129317815Y-124460000D01*
X129346487Y-124751111D01*
X129431401Y-125031034D01*
X129569294Y-125289014D01*
X129754866Y-125515134D01*
X129980986Y-125700706D01*
X130238966Y-125838599D01*
X130518889Y-125923513D01*
X130737050Y-125945000D01*
X130882950Y-125945000D01*
X131101111Y-125923513D01*
X131381034Y-125838599D01*
X131639014Y-125700706D01*
X131865134Y-125515134D01*
X132050706Y-125289014D01*
X132087595Y-125220000D01*
X138936289Y-125220000D01*
X138980226Y-125263937D01*
X139149744Y-125377205D01*
X139338102Y-125455226D01*
X139538061Y-125495000D01*
X139741939Y-125495000D01*
X139941898Y-125455226D01*
X140130256Y-125377205D01*
X140299774Y-125263937D01*
X140443937Y-125119774D01*
X140557205Y-124950256D01*
X140635226Y-124761898D01*
X140675000Y-124561939D01*
X140675000Y-124358061D01*
X140635226Y-124158102D01*
X140557205Y-123969744D01*
X140443937Y-123800226D01*
X140299774Y-123656063D01*
X140130256Y-123542795D01*
X139941898Y-123464774D01*
X139741939Y-123425000D01*
X139538061Y-123425000D01*
X139338102Y-123464774D01*
X139149744Y-123542795D01*
X138980226Y-123656063D01*
X138936289Y-123700000D01*
X132087595Y-123700000D01*
X132050706Y-123630986D01*
X131865134Y-123404866D01*
X131639014Y-123219294D01*
X131584209Y-123190000D01*
X131639014Y-123160706D01*
X131865134Y-122975134D01*
X132050706Y-122749014D01*
X132188599Y-122491034D01*
X132273513Y-122211111D01*
X132302185Y-121920000D01*
X132273513Y-121628889D01*
X132188599Y-121348966D01*
X132050706Y-121090986D01*
X131865134Y-120864866D01*
X131639014Y-120679294D01*
X131584209Y-120650000D01*
X131639014Y-120620706D01*
X131865134Y-120435134D01*
X132050706Y-120209014D01*
X132087595Y-120140000D01*
X136710289Y-120140000D01*
X136754226Y-120183937D01*
X136923744Y-120297205D01*
X137112102Y-120375226D01*
X137312061Y-120415000D01*
X137515939Y-120415000D01*
X137715898Y-120375226D01*
X137904256Y-120297205D01*
X138073774Y-120183937D01*
X138217937Y-120039774D01*
X138331205Y-119870256D01*
X138409226Y-119681898D01*
X138449000Y-119481939D01*
X138449000Y-119278061D01*
X138409226Y-119078102D01*
X138331205Y-118889744D01*
X138217937Y-118720226D01*
X138073774Y-118576063D01*
X137904256Y-118462795D01*
X137715898Y-118384774D01*
X137515939Y-118345000D01*
X137312061Y-118345000D01*
X137112102Y-118384774D01*
X136923744Y-118462795D01*
X136754226Y-118576063D01*
X136710289Y-118620000D01*
X132087595Y-118620000D01*
X132050706Y-118550986D01*
X131865134Y-118324866D01*
X131639014Y-118139294D01*
X131584209Y-118110000D01*
X131639014Y-118080706D01*
X131865134Y-117895134D01*
X132050706Y-117669014D01*
X132188599Y-117411034D01*
X132273513Y-117131111D01*
X132302185Y-116840000D01*
X132273513Y-116548889D01*
X132188599Y-116268966D01*
X132050706Y-116010986D01*
X131865134Y-115784866D01*
X131639014Y-115599294D01*
X131584209Y-115570000D01*
X131639014Y-115540706D01*
X131865134Y-115355134D01*
X132050706Y-115129014D01*
X132188599Y-114871034D01*
X132273513Y-114591111D01*
X132302185Y-114300000D01*
X132273513Y-114008889D01*
X132250797Y-113934005D01*
X132845008Y-113339795D01*
X132874001Y-113316001D01*
X132897795Y-113287008D01*
X132897799Y-113287004D01*
X132968973Y-113200277D01*
X132968974Y-113200276D01*
X133039546Y-113068247D01*
X133083003Y-112924986D01*
X133094000Y-112813333D01*
X133094000Y-112813324D01*
X133097676Y-112776001D01*
X133094000Y-112738678D01*
X133094000Y-110804801D01*
X133410802Y-110488000D01*
X135344678Y-110488000D01*
X135382000Y-110491676D01*
X135419322Y-110488000D01*
X135419333Y-110488000D01*
X135530986Y-110477003D01*
X135674247Y-110433546D01*
X135806276Y-110362974D01*
X135922001Y-110268001D01*
X135945804Y-110238997D01*
X138886014Y-107298788D01*
X138915012Y-107274990D01*
X139009985Y-107159265D01*
X139080557Y-107027236D01*
X139124014Y-106883975D01*
X139135011Y-106772322D01*
X139135011Y-106772314D01*
X139138687Y-106734989D01*
X139135011Y-106697664D01*
X139135011Y-90129342D01*
X139308933Y-90201383D01*
X139528212Y-90245000D01*
X139751788Y-90245000D01*
X139971067Y-90201383D01*
X140177624Y-90115824D01*
X140363520Y-89991612D01*
X140521612Y-89833520D01*
X140645824Y-89647624D01*
X140731383Y-89441067D01*
X140775000Y-89221788D01*
X140775000Y-88998212D01*
X140731383Y-88778933D01*
X140645824Y-88572376D01*
X140580759Y-88475000D01*
X140645824Y-88377624D01*
X140731383Y-88171067D01*
X140775000Y-87951788D01*
X140775000Y-87728212D01*
X140731383Y-87508933D01*
X140645824Y-87302376D01*
X140580759Y-87205000D01*
X140645824Y-87107624D01*
X140731383Y-86901067D01*
X140775000Y-86681788D01*
X140775000Y-86458212D01*
X140731383Y-86238933D01*
X140645824Y-86032376D01*
X140580759Y-85935000D01*
X140645824Y-85837624D01*
X140731383Y-85631067D01*
X140775000Y-85411788D01*
X140775000Y-85188212D01*
X140731383Y-84968933D01*
X140645824Y-84762376D01*
X140542720Y-84608070D01*
X140631588Y-84593450D01*
X140722458Y-84389174D01*
X140771731Y-84171095D01*
X140777511Y-83947594D01*
X140739577Y-83727260D01*
X140659387Y-83518560D01*
X140631588Y-83466550D01*
X140418166Y-83431439D01*
X139819605Y-84030000D01*
X139833748Y-84044143D01*
X139712890Y-84165000D01*
X139567110Y-84165000D01*
X139446253Y-84044143D01*
X139460395Y-84030000D01*
X138861834Y-83431439D01*
X138648412Y-83466550D01*
X138557542Y-83670826D01*
X138508269Y-83888905D01*
X138502489Y-84112406D01*
X138540423Y-84332740D01*
X138620613Y-84541440D01*
X138647790Y-84592287D01*
X138643957Y-84593450D01*
X138640647Y-84594454D01*
X138508617Y-84665026D01*
X138424977Y-84733668D01*
X138392893Y-84759999D01*
X138369095Y-84788997D01*
X138190732Y-84967361D01*
X138145112Y-84857226D01*
X138189502Y-84774180D01*
X138225812Y-84654482D01*
X138238072Y-84530000D01*
X138238072Y-83530000D01*
X138225812Y-83405518D01*
X138189502Y-83285820D01*
X138171336Y-83251834D01*
X139041439Y-83251834D01*
X139640000Y-83850395D01*
X140238561Y-83251834D01*
X140203450Y-83038412D01*
X139999174Y-82947542D01*
X139781095Y-82898269D01*
X139557594Y-82892489D01*
X139337260Y-82930423D01*
X139128560Y-83010613D01*
X139076550Y-83038412D01*
X139041439Y-83251834D01*
X138171336Y-83251834D01*
X138130537Y-83175506D01*
X138051185Y-83078815D01*
X137954494Y-82999463D01*
X137844180Y-82940498D01*
X137724482Y-82904188D01*
X137600000Y-82891928D01*
X136600000Y-82891928D01*
X136475518Y-82904188D01*
X136355820Y-82940498D01*
X136245506Y-82999463D01*
X136148815Y-83078815D01*
X136069463Y-83175506D01*
X136010498Y-83285820D01*
X135974188Y-83405518D01*
X135961928Y-83530000D01*
X135961928Y-84530000D01*
X135974188Y-84654482D01*
X136010498Y-84774180D01*
X136054888Y-84857226D01*
X136008617Y-84968933D01*
X135965000Y-85188212D01*
X135965000Y-85411788D01*
X136008617Y-85631067D01*
X136094176Y-85837624D01*
X136159241Y-85935000D01*
X136094176Y-86032376D01*
X136008617Y-86238933D01*
X135965000Y-86458212D01*
X135965000Y-86681788D01*
X136008617Y-86901067D01*
X136094176Y-87107624D01*
X136159241Y-87205000D01*
X136094176Y-87302376D01*
X136008617Y-87508933D01*
X135965000Y-87728212D01*
X135965000Y-87951788D01*
X136008617Y-88171067D01*
X136094176Y-88377624D01*
X136159241Y-88475000D01*
X136094176Y-88572376D01*
X136008617Y-88778933D01*
X135965000Y-88998212D01*
X135965000Y-89221788D01*
X136008617Y-89441067D01*
X136094176Y-89647624D01*
X136218388Y-89833520D01*
X136376480Y-89991612D01*
X136562376Y-90115824D01*
X136768933Y-90201383D01*
X136988212Y-90245000D01*
X137165001Y-90245000D01*
X137165002Y-105981196D01*
X134686199Y-108460000D01*
X132087595Y-108460000D01*
X132050706Y-108390986D01*
X131865134Y-108164866D01*
X131639014Y-107979294D01*
X131584209Y-107950000D01*
X131639014Y-107920706D01*
X131865134Y-107735134D01*
X132050706Y-107509014D01*
X132188599Y-107251034D01*
X132273513Y-106971111D01*
X132302185Y-106680000D01*
X132273513Y-106388889D01*
X132188599Y-106108966D01*
X132050706Y-105850986D01*
X131865134Y-105624866D01*
X131639014Y-105439294D01*
X131584209Y-105410000D01*
X131639014Y-105380706D01*
X131865134Y-105195134D01*
X132050706Y-104969014D01*
X132188599Y-104711034D01*
X132273513Y-104431111D01*
X132302185Y-104140000D01*
X132273513Y-103848889D01*
X132250797Y-103774004D01*
X135385003Y-100639799D01*
X135414001Y-100616001D01*
X135472380Y-100544866D01*
X135508974Y-100500277D01*
X135579546Y-100368247D01*
X135583357Y-100355684D01*
X135623003Y-100224986D01*
X135634000Y-100113333D01*
X135634000Y-100113323D01*
X135637676Y-100076000D01*
X135634000Y-100038677D01*
X135634000Y-82490010D01*
X137436078Y-82490010D01*
X137473400Y-82493686D01*
X137510722Y-82490010D01*
X137510733Y-82490010D01*
X137622386Y-82479013D01*
X137765647Y-82435556D01*
X137897676Y-82364984D01*
X138013401Y-82270011D01*
X138037203Y-82241008D01*
X139215522Y-81062691D01*
X139308933Y-81101383D01*
X139528212Y-81145000D01*
X139751788Y-81145000D01*
X139971067Y-81101383D01*
X140177624Y-81015824D01*
X140363520Y-80891612D01*
X140521612Y-80733520D01*
X140645824Y-80547624D01*
X140731383Y-80341067D01*
X140775000Y-80121788D01*
X140775000Y-79898212D01*
X140731383Y-79678933D01*
X140645824Y-79472376D01*
X140580759Y-79375000D01*
X140645824Y-79277624D01*
X140731383Y-79071067D01*
X140775000Y-78851788D01*
X140775000Y-78628212D01*
X140731383Y-78408933D01*
X140645824Y-78202376D01*
X140580759Y-78105000D01*
X140645824Y-78007624D01*
X140731383Y-77801067D01*
X140775000Y-77581788D01*
X140775000Y-77358212D01*
X140731383Y-77138933D01*
X140645824Y-76932376D01*
X140580759Y-76835000D01*
X140645824Y-76737624D01*
X140731383Y-76531067D01*
X140775000Y-76311788D01*
X140775000Y-76088212D01*
X140731383Y-75868933D01*
X140645824Y-75662376D01*
X140542720Y-75508070D01*
X140631588Y-75493450D01*
X140722458Y-75289174D01*
X140771731Y-75071095D01*
X140777511Y-74847594D01*
X140739577Y-74627260D01*
X140659387Y-74418560D01*
X140631588Y-74366550D01*
X140418166Y-74331439D01*
X139819605Y-74930000D01*
X139833748Y-74944143D01*
X139712890Y-75065000D01*
X139567110Y-75065000D01*
X139446253Y-74944143D01*
X139460395Y-74930000D01*
X138861834Y-74331439D01*
X138648412Y-74366550D01*
X138557542Y-74570826D01*
X138508269Y-74788905D01*
X138502489Y-75012406D01*
X138540423Y-75232740D01*
X138620613Y-75441440D01*
X138648412Y-75493450D01*
X138737280Y-75508070D01*
X138634176Y-75662376D01*
X138548617Y-75868933D01*
X138505000Y-76088212D01*
X138505000Y-76311788D01*
X138548617Y-76531067D01*
X138634176Y-76737624D01*
X138699241Y-76835000D01*
X138634176Y-76932376D01*
X138548617Y-77138933D01*
X138505000Y-77358212D01*
X138505000Y-77581788D01*
X138548617Y-77801067D01*
X138622734Y-77980000D01*
X138594322Y-77980000D01*
X138556999Y-77976324D01*
X138519676Y-77980000D01*
X138519667Y-77980000D01*
X138408014Y-77990997D01*
X138264753Y-78034454D01*
X138132724Y-78105026D01*
X138073340Y-78153761D01*
X138040759Y-78105000D01*
X138105824Y-78007624D01*
X138191383Y-77801067D01*
X138235000Y-77581788D01*
X138235000Y-77358212D01*
X138191383Y-77138933D01*
X138105824Y-76932376D01*
X138040759Y-76835000D01*
X138105824Y-76737624D01*
X138191383Y-76531067D01*
X138235000Y-76311788D01*
X138235000Y-76088212D01*
X138191383Y-75868933D01*
X138145112Y-75757226D01*
X138189502Y-75674180D01*
X138225812Y-75554482D01*
X138238072Y-75430000D01*
X138238072Y-74430000D01*
X138225812Y-74305518D01*
X138189502Y-74185820D01*
X138171336Y-74151834D01*
X139041439Y-74151834D01*
X139640000Y-74750395D01*
X140238561Y-74151834D01*
X140203450Y-73938412D01*
X139999174Y-73847542D01*
X139781095Y-73798269D01*
X139557594Y-73792489D01*
X139337260Y-73830423D01*
X139128560Y-73910613D01*
X139076550Y-73938412D01*
X139041439Y-74151834D01*
X138171336Y-74151834D01*
X138130537Y-74075506D01*
X138051185Y-73978815D01*
X137954494Y-73899463D01*
X137844180Y-73840498D01*
X137724482Y-73804188D01*
X137600000Y-73791928D01*
X136600000Y-73791928D01*
X136475518Y-73804188D01*
X136355820Y-73840498D01*
X136245506Y-73899463D01*
X136148815Y-73978815D01*
X136069463Y-74075506D01*
X136010498Y-74185820D01*
X135974188Y-74305518D01*
X135961928Y-74430000D01*
X135961928Y-75430000D01*
X135974188Y-75554482D01*
X136010498Y-75674180D01*
X136054888Y-75757226D01*
X136008617Y-75868933D01*
X135991877Y-75953091D01*
X135855521Y-75994453D01*
X135723492Y-76065025D01*
X135607767Y-76159998D01*
X135583969Y-76188996D01*
X133384987Y-78387979D01*
X133384987Y-73355830D01*
X133435063Y-73430774D01*
X133579226Y-73574937D01*
X133748744Y-73688205D01*
X133937102Y-73766226D01*
X134137061Y-73806000D01*
X134340939Y-73806000D01*
X134540898Y-73766226D01*
X134729256Y-73688205D01*
X134898774Y-73574937D01*
X134942711Y-73531000D01*
X137741678Y-73531000D01*
X137779000Y-73534676D01*
X137816322Y-73531000D01*
X137816333Y-73531000D01*
X137927986Y-73520003D01*
X138071247Y-73476546D01*
X138203276Y-73405974D01*
X138319001Y-73311001D01*
X138342803Y-73281998D01*
X139579802Y-72045000D01*
X139751788Y-72045000D01*
X139971067Y-72001383D01*
X140177624Y-71915824D01*
X140363520Y-71791612D01*
X140521612Y-71633520D01*
X140645824Y-71447624D01*
X140731383Y-71241067D01*
X140775000Y-71021788D01*
X140775000Y-70798212D01*
X140731383Y-70578933D01*
X140645824Y-70372376D01*
X140580759Y-70275000D01*
X140645824Y-70177624D01*
X140731383Y-69971067D01*
X140775000Y-69751788D01*
X140775000Y-69528212D01*
X140731383Y-69308933D01*
X140645824Y-69102376D01*
X140580759Y-69005000D01*
X140645824Y-68907624D01*
X140731383Y-68701067D01*
X140775000Y-68481788D01*
X140775000Y-68258212D01*
X140731383Y-68038933D01*
X140645824Y-67832376D01*
X140580759Y-67735000D01*
X140645824Y-67637624D01*
X140731383Y-67431067D01*
X140775000Y-67211788D01*
X140775000Y-66988212D01*
X140731383Y-66768933D01*
X140645824Y-66562376D01*
X140542720Y-66408070D01*
X140631588Y-66393450D01*
X140722458Y-66189174D01*
X140771731Y-65971095D01*
X140777511Y-65747594D01*
X140739577Y-65527260D01*
X140659387Y-65318560D01*
X140631588Y-65266550D01*
X140418166Y-65231439D01*
X139819605Y-65830000D01*
X139833748Y-65844143D01*
X139712890Y-65965000D01*
X139567110Y-65965000D01*
X139446253Y-65844143D01*
X139460395Y-65830000D01*
X138861834Y-65231439D01*
X138648412Y-65266550D01*
X138557542Y-65470826D01*
X138508269Y-65688905D01*
X138502489Y-65912406D01*
X138540423Y-66132740D01*
X138620613Y-66341440D01*
X138648412Y-66393450D01*
X138737280Y-66408070D01*
X138634176Y-66562376D01*
X138548617Y-66768933D01*
X138505000Y-66988212D01*
X138505000Y-67211788D01*
X138548617Y-67431067D01*
X138634176Y-67637624D01*
X138699241Y-67735000D01*
X138634176Y-67832376D01*
X138548617Y-68038933D01*
X138505000Y-68258212D01*
X138505000Y-68481788D01*
X138548617Y-68701067D01*
X138634176Y-68907624D01*
X138699241Y-69005000D01*
X138634176Y-69102376D01*
X138548617Y-69308933D01*
X138505000Y-69528212D01*
X138505000Y-69700198D01*
X138161155Y-70044043D01*
X138191383Y-69971067D01*
X138235000Y-69751788D01*
X138235000Y-69528212D01*
X138191383Y-69308933D01*
X138105824Y-69102376D01*
X138040759Y-69005000D01*
X138105824Y-68907624D01*
X138191383Y-68701067D01*
X138235000Y-68481788D01*
X138235000Y-68258212D01*
X138191383Y-68038933D01*
X138105824Y-67832376D01*
X138040759Y-67735000D01*
X138105824Y-67637624D01*
X138191383Y-67431067D01*
X138235000Y-67211788D01*
X138235000Y-66988212D01*
X138191383Y-66768933D01*
X138145112Y-66657226D01*
X138189502Y-66574180D01*
X138225812Y-66454482D01*
X138238072Y-66330000D01*
X138238072Y-65330000D01*
X138225812Y-65205518D01*
X138189502Y-65085820D01*
X138171336Y-65051834D01*
X139041439Y-65051834D01*
X139640000Y-65650395D01*
X140238561Y-65051834D01*
X140203450Y-64838412D01*
X139999174Y-64747542D01*
X139781095Y-64698269D01*
X139557594Y-64692489D01*
X139337260Y-64730423D01*
X139128560Y-64810613D01*
X139076550Y-64838412D01*
X139041439Y-65051834D01*
X138171336Y-65051834D01*
X138130537Y-64975506D01*
X138051185Y-64878815D01*
X137954494Y-64799463D01*
X137844180Y-64740498D01*
X137724482Y-64704188D01*
X137600000Y-64691928D01*
X136600000Y-64691928D01*
X136475518Y-64704188D01*
X136355820Y-64740498D01*
X136245506Y-64799463D01*
X136148815Y-64878815D01*
X136069463Y-64975506D01*
X136010498Y-65085820D01*
X135974188Y-65205518D01*
X135961928Y-65330000D01*
X135961928Y-66330000D01*
X135962913Y-66340000D01*
X132270817Y-66340000D01*
X132273513Y-66331111D01*
X132302185Y-66040000D01*
X132273513Y-65748889D01*
X132188599Y-65468966D01*
X132050706Y-65210986D01*
X131865134Y-64984866D01*
X131835313Y-64960393D01*
X131904180Y-64939502D01*
X132014494Y-64880537D01*
X132111185Y-64801185D01*
X132190537Y-64704494D01*
X132249502Y-64594180D01*
X132285812Y-64474482D01*
X132298072Y-64350000D01*
X132298072Y-62650000D01*
X132285812Y-62525518D01*
X132249502Y-62405820D01*
X132190537Y-62295506D01*
X132111185Y-62198815D01*
X132014494Y-62119463D01*
X131904180Y-62060498D01*
X131784482Y-62024188D01*
X131660000Y-62011928D01*
X129960000Y-62011928D01*
X129835518Y-62024188D01*
X129715820Y-62060498D01*
X129605506Y-62119463D01*
X129508815Y-62198815D01*
X129429463Y-62295506D01*
X129370498Y-62405820D01*
X129334188Y-62525518D01*
X129321928Y-62650000D01*
X129321928Y-64350000D01*
X129334188Y-64474482D01*
X129370498Y-64594180D01*
X129429463Y-64704494D01*
X129508815Y-64801185D01*
X129605506Y-64880537D01*
X129715820Y-64939502D01*
X129784687Y-64960393D01*
X129754866Y-64984866D01*
X129569294Y-65210986D01*
X129431401Y-65468966D01*
X129346487Y-65748889D01*
X129317815Y-66040000D01*
X124682185Y-66040000D01*
X124653513Y-65748889D01*
X124568599Y-65468966D01*
X124430706Y-65210986D01*
X124245134Y-64984866D01*
X124215313Y-64960393D01*
X124284180Y-64939502D01*
X124394494Y-64880537D01*
X124491185Y-64801185D01*
X124570537Y-64704494D01*
X124629502Y-64594180D01*
X124665812Y-64474482D01*
X124678072Y-64350000D01*
X124678072Y-62650000D01*
X124665812Y-62525518D01*
X124629502Y-62405820D01*
X124570537Y-62295506D01*
X124491185Y-62198815D01*
X124394494Y-62119463D01*
X124284180Y-62060498D01*
X124164482Y-62024188D01*
X124040000Y-62011928D01*
X122340000Y-62011928D01*
X122215518Y-62024188D01*
X122095820Y-62060498D01*
X121985506Y-62119463D01*
X121888815Y-62198815D01*
X121809463Y-62295506D01*
X121750498Y-62405820D01*
X121714188Y-62525518D01*
X121701928Y-62650000D01*
X121701928Y-64350000D01*
X121714188Y-64474482D01*
X121750498Y-64594180D01*
X121809463Y-64704494D01*
X121888815Y-64801185D01*
X121985506Y-64880537D01*
X122095820Y-64939502D01*
X122164687Y-64960393D01*
X122134866Y-64984866D01*
X121949294Y-65210986D01*
X121811401Y-65468966D01*
X121726487Y-65748889D01*
X121697815Y-66040000D01*
X121726487Y-66331111D01*
X121729183Y-66340000D01*
X117915365Y-66340000D01*
X117982458Y-66189174D01*
X118031731Y-65971095D01*
X118037511Y-65747594D01*
X117999577Y-65527260D01*
X117919387Y-65318560D01*
X117891588Y-65266550D01*
X117678166Y-65231439D01*
X117079605Y-65830000D01*
X117093748Y-65844143D01*
X116972890Y-65965000D01*
X116827110Y-65965000D01*
X116706253Y-65844143D01*
X116720395Y-65830000D01*
X116121834Y-65231439D01*
X115908412Y-65266550D01*
X115817542Y-65470826D01*
X115768269Y-65688905D01*
X115762489Y-65912406D01*
X115800423Y-66132740D01*
X115880613Y-66341440D01*
X115908412Y-66393450D01*
X115997280Y-66408070D01*
X115894176Y-66562376D01*
X115808617Y-66768933D01*
X115765000Y-66988212D01*
X115765000Y-67211788D01*
X115808617Y-67431067D01*
X115894176Y-67637624D01*
X115959241Y-67735000D01*
X115894176Y-67832376D01*
X115808617Y-68038933D01*
X115765000Y-68258212D01*
X115765000Y-68481788D01*
X115808617Y-68701067D01*
X115894176Y-68907624D01*
X115959241Y-69005000D01*
X115894176Y-69102376D01*
X115808617Y-69308933D01*
X115765000Y-69528212D01*
X115765000Y-69751788D01*
X115808617Y-69971067D01*
X115838845Y-70044044D01*
X115495000Y-69700199D01*
X115495000Y-69528212D01*
X115451383Y-69308933D01*
X115365824Y-69102376D01*
X115300759Y-69005000D01*
X115365824Y-68907624D01*
X115451383Y-68701067D01*
X115495000Y-68481788D01*
X115495000Y-68258212D01*
X115451383Y-68038933D01*
X115365824Y-67832376D01*
X115300759Y-67735000D01*
X115365824Y-67637624D01*
X115451383Y-67431067D01*
X115495000Y-67211788D01*
X115495000Y-66988212D01*
X115451383Y-66768933D01*
X115405112Y-66657226D01*
X115449502Y-66574180D01*
X115485812Y-66454482D01*
X115498072Y-66330000D01*
X115498072Y-65330000D01*
X115485812Y-65205518D01*
X115449502Y-65085820D01*
X115431336Y-65051834D01*
X116301439Y-65051834D01*
X116900000Y-65650395D01*
X117498561Y-65051834D01*
X117463450Y-64838412D01*
X117259174Y-64747542D01*
X117041095Y-64698269D01*
X116817594Y-64692489D01*
X116597260Y-64730423D01*
X116388560Y-64810613D01*
X116336550Y-64838412D01*
X116301439Y-65051834D01*
X115431336Y-65051834D01*
X115390537Y-64975506D01*
X115311185Y-64878815D01*
X115214494Y-64799463D01*
X115104180Y-64740498D01*
X114984482Y-64704188D01*
X114860000Y-64691928D01*
X113860000Y-64691928D01*
X113735518Y-64704188D01*
X113615820Y-64740498D01*
X113505506Y-64799463D01*
X113408815Y-64878815D01*
X113329463Y-64975506D01*
X113270498Y-65085820D01*
X113234188Y-65205518D01*
X113221928Y-65330000D01*
X113221928Y-66330000D01*
X113234188Y-66454482D01*
X113270498Y-66574180D01*
X113314888Y-66657226D01*
X113268617Y-66768933D01*
X113225000Y-66988212D01*
X113225000Y-67211788D01*
X113268617Y-67431067D01*
X113354176Y-67637624D01*
X113419241Y-67735000D01*
X113354176Y-67832376D01*
X113268617Y-68038933D01*
X113225000Y-68258212D01*
X113225000Y-68481788D01*
X113268617Y-68701067D01*
X113354176Y-68907624D01*
X113419241Y-69005000D01*
X113354176Y-69102376D01*
X113268617Y-69308933D01*
X113225000Y-69528212D01*
X113225000Y-69751788D01*
X113268617Y-69971067D01*
X113354176Y-70177624D01*
X113419241Y-70275000D01*
X113354176Y-70372376D01*
X113268617Y-70578933D01*
X113225000Y-70798212D01*
X113225000Y-71021788D01*
X113268617Y-71241067D01*
X113354176Y-71447624D01*
X113478388Y-71633520D01*
X113636480Y-71791612D01*
X113822376Y-71915824D01*
X114028933Y-72001383D01*
X114248212Y-72045000D01*
X114471788Y-72045000D01*
X114691067Y-72001383D01*
X114897624Y-71915824D01*
X115083520Y-71791612D01*
X115241612Y-71633520D01*
X115256475Y-71611276D01*
X117816201Y-74171003D01*
X117839999Y-74200001D01*
X117868997Y-74223799D01*
X117955724Y-74294974D01*
X118087753Y-74365546D01*
X118231014Y-74409003D01*
X118380000Y-74423677D01*
X118417333Y-74420000D01*
X118422251Y-74420000D01*
X118466188Y-74463937D01*
X118635706Y-74577205D01*
X118824064Y-74655226D01*
X119024023Y-74695000D01*
X119128000Y-74695000D01*
X119128001Y-77940668D01*
X119124324Y-77978000D01*
X119138998Y-78126985D01*
X119182454Y-78270246D01*
X119253026Y-78402276D01*
X119291281Y-78448889D01*
X119348000Y-78518001D01*
X119376998Y-78541799D01*
X121749203Y-80914005D01*
X121726487Y-80988889D01*
X121700235Y-81255433D01*
X120959800Y-80514999D01*
X120935997Y-80485995D01*
X120820272Y-80391022D01*
X120688243Y-80320450D01*
X120544982Y-80276993D01*
X120433329Y-80265996D01*
X120433318Y-80265996D01*
X120395996Y-80262320D01*
X120358674Y-80265996D01*
X119956711Y-80265996D01*
X119912774Y-80222059D01*
X119743256Y-80108791D01*
X119554898Y-80030770D01*
X119354939Y-79990996D01*
X119151061Y-79990996D01*
X118951102Y-80030770D01*
X118762744Y-80108791D01*
X118593226Y-80222059D01*
X118449063Y-80366222D01*
X118335795Y-80535740D01*
X118257774Y-80724098D01*
X118218000Y-80924057D01*
X118218000Y-81127935D01*
X118257774Y-81327894D01*
X118335795Y-81516252D01*
X118423269Y-81647167D01*
X118399457Y-81704655D01*
X117601276Y-80906475D01*
X117623520Y-80891612D01*
X117781612Y-80733520D01*
X117905824Y-80547624D01*
X117991383Y-80341067D01*
X118035000Y-80121788D01*
X118035000Y-79898212D01*
X117991383Y-79678933D01*
X117905824Y-79472376D01*
X117840759Y-79375000D01*
X117905824Y-79277624D01*
X117991383Y-79071067D01*
X118035000Y-78851788D01*
X118035000Y-78628212D01*
X117991383Y-78408933D01*
X117905824Y-78202376D01*
X117840759Y-78105000D01*
X117905824Y-78007624D01*
X117991383Y-77801067D01*
X118035000Y-77581788D01*
X118035000Y-77358212D01*
X117991383Y-77138933D01*
X117905824Y-76932376D01*
X117840759Y-76835000D01*
X117905824Y-76737624D01*
X117991383Y-76531067D01*
X118035000Y-76311788D01*
X118035000Y-76088212D01*
X117991383Y-75868933D01*
X117905824Y-75662376D01*
X117802720Y-75508070D01*
X117891588Y-75493450D01*
X117982458Y-75289174D01*
X118031731Y-75071095D01*
X118037511Y-74847594D01*
X117999577Y-74627260D01*
X117919387Y-74418560D01*
X117891588Y-74366550D01*
X117678166Y-74331439D01*
X117079605Y-74930000D01*
X117093748Y-74944143D01*
X116972890Y-75065000D01*
X116827110Y-75065000D01*
X116706253Y-74944143D01*
X116720395Y-74930000D01*
X116121834Y-74331439D01*
X115908412Y-74366550D01*
X115817542Y-74570826D01*
X115768269Y-74788905D01*
X115762489Y-75012406D01*
X115800423Y-75232740D01*
X115880613Y-75441440D01*
X115908412Y-75493450D01*
X115997280Y-75508070D01*
X115894176Y-75662376D01*
X115808617Y-75868933D01*
X115765000Y-76088212D01*
X115765000Y-76311788D01*
X115808617Y-76531067D01*
X115894176Y-76737624D01*
X115959241Y-76835000D01*
X115894176Y-76932376D01*
X115808617Y-77138933D01*
X115765000Y-77358212D01*
X115765000Y-77581788D01*
X115808617Y-77801067D01*
X115894176Y-78007624D01*
X115959241Y-78105000D01*
X115894176Y-78202376D01*
X115808617Y-78408933D01*
X115765000Y-78628212D01*
X115765000Y-78851788D01*
X115808617Y-79071067D01*
X115838845Y-79144044D01*
X115495000Y-78800199D01*
X115495000Y-78628212D01*
X115451383Y-78408933D01*
X115365824Y-78202376D01*
X115300759Y-78105000D01*
X115365824Y-78007624D01*
X115451383Y-77801067D01*
X115495000Y-77581788D01*
X115495000Y-77358212D01*
X115451383Y-77138933D01*
X115365824Y-76932376D01*
X115300759Y-76835000D01*
X115365824Y-76737624D01*
X115451383Y-76531067D01*
X115495000Y-76311788D01*
X115495000Y-76088212D01*
X115451383Y-75868933D01*
X115405112Y-75757226D01*
X115449502Y-75674180D01*
X115485812Y-75554482D01*
X115498072Y-75430000D01*
X115498072Y-74430000D01*
X115485812Y-74305518D01*
X115449502Y-74185820D01*
X115431336Y-74151834D01*
X116301439Y-74151834D01*
X116900000Y-74750395D01*
X117498561Y-74151834D01*
X117463450Y-73938412D01*
X117259174Y-73847542D01*
X117041095Y-73798269D01*
X116817594Y-73792489D01*
X116597260Y-73830423D01*
X116388560Y-73910613D01*
X116336550Y-73938412D01*
X116301439Y-74151834D01*
X115431336Y-74151834D01*
X115390537Y-74075506D01*
X115311185Y-73978815D01*
X115214494Y-73899463D01*
X115104180Y-73840498D01*
X114984482Y-73804188D01*
X114860000Y-73791928D01*
X113860000Y-73791928D01*
X113735518Y-73804188D01*
X113615820Y-73840498D01*
X113505506Y-73899463D01*
X113408815Y-73978815D01*
X113329463Y-74075506D01*
X113270498Y-74185820D01*
X113234188Y-74305518D01*
X113221928Y-74430000D01*
X113221928Y-75430000D01*
X113234188Y-75554482D01*
X113270498Y-75674180D01*
X113314888Y-75757226D01*
X113268617Y-75868933D01*
X113225000Y-76088212D01*
X113225000Y-76311788D01*
X113268617Y-76531067D01*
X113354176Y-76737624D01*
X113419241Y-76835000D01*
X113354176Y-76932376D01*
X113268617Y-77138933D01*
X113225000Y-77358212D01*
X113225000Y-77581788D01*
X113268617Y-77801067D01*
X113354176Y-78007624D01*
X113419241Y-78105000D01*
X113354176Y-78202376D01*
X113268617Y-78408933D01*
X113225000Y-78628212D01*
X113225000Y-78851788D01*
X113268617Y-79071067D01*
X113354176Y-79277624D01*
X113419241Y-79375000D01*
X113354176Y-79472376D01*
X113268617Y-79678933D01*
X113225000Y-79898212D01*
X113225000Y-80121788D01*
X113268617Y-80341067D01*
X113354176Y-80547624D01*
X113478388Y-80733520D01*
X113636480Y-80891612D01*
X113822376Y-81015824D01*
X114028933Y-81101383D01*
X114248212Y-81145000D01*
X114471788Y-81145000D01*
X114691067Y-81101383D01*
X114785476Y-81062277D01*
X116645343Y-82922145D01*
X116597260Y-82930423D01*
X116388560Y-83010613D01*
X116336550Y-83038412D01*
X116301439Y-83251834D01*
X116900000Y-83850395D01*
X116914143Y-83836253D01*
X117093748Y-84015858D01*
X117079605Y-84030000D01*
X117093748Y-84044143D01*
X116972890Y-84165000D01*
X116827110Y-84165000D01*
X116706253Y-84044143D01*
X116720395Y-84030000D01*
X116121834Y-83431439D01*
X115908412Y-83466550D01*
X115817542Y-83670826D01*
X115768269Y-83888905D01*
X115762489Y-84112406D01*
X115800423Y-84332740D01*
X115880613Y-84541440D01*
X115908412Y-84593450D01*
X115997280Y-84608070D01*
X115894176Y-84762376D01*
X115808617Y-84968933D01*
X115765000Y-85188212D01*
X115765000Y-85411788D01*
X115808617Y-85631067D01*
X115894176Y-85837624D01*
X115959241Y-85935000D01*
X115894176Y-86032376D01*
X115808617Y-86238933D01*
X115765000Y-86458212D01*
X115765000Y-86681788D01*
X115808617Y-86901067D01*
X115894176Y-87107624D01*
X115959241Y-87205000D01*
X115894176Y-87302376D01*
X115808617Y-87508933D01*
X115765000Y-87728212D01*
X115765000Y-87951788D01*
X115808617Y-88171067D01*
X115894176Y-88377624D01*
X115959241Y-88475000D01*
X115894176Y-88572376D01*
X115808617Y-88778933D01*
X115765000Y-88998212D01*
X115765000Y-89221788D01*
X115808617Y-89441067D01*
X115894176Y-89647624D01*
X116018388Y-89833520D01*
X116176480Y-89991612D01*
X116362376Y-90115824D01*
X116568933Y-90201383D01*
X116788212Y-90245000D01*
X117011788Y-90245000D01*
X117231067Y-90201383D01*
X117437624Y-90115824D01*
X117623520Y-89991612D01*
X117781612Y-89833520D01*
X117905824Y-89647624D01*
X117991383Y-89441067D01*
X118035000Y-89221788D01*
X118035000Y-88998212D01*
X117991383Y-88778933D01*
X117905824Y-88572376D01*
X117840759Y-88475000D01*
X117905824Y-88377624D01*
X117991383Y-88171067D01*
X118035000Y-87951788D01*
X118035000Y-87728212D01*
X117991383Y-87508933D01*
X117905824Y-87302376D01*
X117840759Y-87205000D01*
X117905824Y-87107624D01*
X117991383Y-86901067D01*
X118035000Y-86681788D01*
X118035000Y-86458212D01*
X117991383Y-86238933D01*
X117905824Y-86032376D01*
X117840759Y-85935000D01*
X117905824Y-85837624D01*
X117991383Y-85631067D01*
X118035000Y-85411788D01*
X118035000Y-85188212D01*
X117991383Y-84968933D01*
X117905824Y-84762376D01*
X117802720Y-84608070D01*
X117891588Y-84593450D01*
X117982458Y-84389174D01*
X118006401Y-84283203D01*
X119636000Y-85912803D01*
X119636001Y-96228668D01*
X119632324Y-96266000D01*
X119646998Y-96414985D01*
X119690454Y-96558246D01*
X119761026Y-96690276D01*
X119832201Y-96777002D01*
X119856000Y-96806001D01*
X119884998Y-96829799D01*
X121749203Y-98694005D01*
X121726487Y-98768889D01*
X121697815Y-99060000D01*
X121726487Y-99351111D01*
X121811401Y-99631034D01*
X121949294Y-99889014D01*
X122134866Y-100115134D01*
X122360986Y-100300706D01*
X122415791Y-100330000D01*
X122360986Y-100359294D01*
X122134866Y-100544866D01*
X121949294Y-100770986D01*
X121811401Y-101028966D01*
X121726487Y-101308889D01*
X121700235Y-101575433D01*
X117473000Y-97348199D01*
X117473000Y-92524711D01*
X117516937Y-92480774D01*
X117630205Y-92311256D01*
X117708226Y-92122898D01*
X117748000Y-91922939D01*
X117748000Y-91719061D01*
X117708226Y-91519102D01*
X117630205Y-91330744D01*
X117516937Y-91161226D01*
X117372774Y-91017063D01*
X117203256Y-90903795D01*
X117014898Y-90825774D01*
X116814939Y-90786000D01*
X116611061Y-90786000D01*
X116411102Y-90825774D01*
X116222744Y-90903795D01*
X116053226Y-91017063D01*
X115909063Y-91161226D01*
X115795795Y-91330744D01*
X115717774Y-91519102D01*
X115678000Y-91719061D01*
X115678000Y-91922939D01*
X115717774Y-92122898D01*
X115795795Y-92311256D01*
X115909063Y-92480774D01*
X115953001Y-92524712D01*
X115953000Y-97625677D01*
X115949324Y-97663000D01*
X115953000Y-97700322D01*
X115953000Y-97700332D01*
X115963997Y-97811985D01*
X116007454Y-97955246D01*
X116078026Y-98087276D01*
X116117871Y-98135826D01*
X116172999Y-98203001D01*
X116202003Y-98226804D01*
X121749203Y-103774005D01*
X121726487Y-103848889D01*
X121697815Y-104140000D01*
X121726487Y-104431111D01*
X121811401Y-104711034D01*
X121949294Y-104969014D01*
X122134866Y-105195134D01*
X122360986Y-105380706D01*
X122415791Y-105410000D01*
X122360986Y-105439294D01*
X122134866Y-105624866D01*
X121949294Y-105850986D01*
X121811401Y-106108966D01*
X121726487Y-106388889D01*
X121700235Y-106655433D01*
X116584000Y-101539199D01*
X116584000Y-101033711D01*
X116627937Y-100989774D01*
X116741205Y-100820256D01*
X116819226Y-100631898D01*
X116859000Y-100431939D01*
X116859000Y-100228061D01*
X116819226Y-100028102D01*
X116741205Y-99839744D01*
X116627937Y-99670226D01*
X116483774Y-99526063D01*
X116314256Y-99412795D01*
X116125898Y-99334774D01*
X115925939Y-99295000D01*
X115722061Y-99295000D01*
X115522102Y-99334774D01*
X115333744Y-99412795D01*
X115164226Y-99526063D01*
X115020063Y-99670226D01*
X114906795Y-99839744D01*
X114828774Y-100028102D01*
X114789000Y-100228061D01*
X114789000Y-100431939D01*
X114828774Y-100631898D01*
X114906795Y-100820256D01*
X115020063Y-100989774D01*
X115064001Y-101033712D01*
X115064000Y-101816677D01*
X115060324Y-101854000D01*
X115064000Y-101891322D01*
X115064000Y-101891332D01*
X115074997Y-102002985D01*
X115116560Y-102140001D01*
X115118454Y-102146246D01*
X115189026Y-102278276D01*
X115228871Y-102326826D01*
X115283999Y-102394001D01*
X115313003Y-102417804D01*
X121749203Y-108854005D01*
X121726487Y-108928889D01*
X121697815Y-109220000D01*
X121726487Y-109511111D01*
X121811401Y-109791034D01*
X121949294Y-110049014D01*
X122134866Y-110275134D01*
X122360986Y-110460706D01*
X122415791Y-110490000D01*
X122360986Y-110519294D01*
X122134866Y-110704866D01*
X121949294Y-110930986D01*
X121811401Y-111188966D01*
X121726487Y-111468889D01*
X121697815Y-111760000D01*
X121726487Y-112051111D01*
X121811401Y-112331034D01*
X121949294Y-112589014D01*
X122134866Y-112815134D01*
X122360986Y-113000706D01*
X122415791Y-113030000D01*
X122360986Y-113059294D01*
X122134866Y-113244866D01*
X121949294Y-113470986D01*
X121914009Y-113536999D01*
X114238710Y-113536999D01*
X114194773Y-113493062D01*
X114025255Y-113379794D01*
X113836897Y-113301773D01*
X113636938Y-113261999D01*
X113433060Y-113261999D01*
X113233101Y-113301773D01*
X113044743Y-113379794D01*
X112885000Y-113486531D01*
X112885000Y-83530000D01*
X113221928Y-83530000D01*
X113221928Y-84530000D01*
X113234188Y-84654482D01*
X113270498Y-84774180D01*
X113314888Y-84857226D01*
X113268617Y-84968933D01*
X113225000Y-85188212D01*
X113225000Y-85411788D01*
X113268617Y-85631067D01*
X113354176Y-85837624D01*
X113419241Y-85935000D01*
X113354176Y-86032376D01*
X113268617Y-86238933D01*
X113225000Y-86458212D01*
X113225000Y-86681788D01*
X113268617Y-86901067D01*
X113354176Y-87107624D01*
X113419241Y-87205000D01*
X113354176Y-87302376D01*
X113268617Y-87508933D01*
X113225000Y-87728212D01*
X113225000Y-87951788D01*
X113268617Y-88171067D01*
X113354176Y-88377624D01*
X113419241Y-88475000D01*
X113354176Y-88572376D01*
X113268617Y-88778933D01*
X113225000Y-88998212D01*
X113225000Y-89221788D01*
X113268617Y-89441067D01*
X113354176Y-89647624D01*
X113478388Y-89833520D01*
X113636480Y-89991612D01*
X113822376Y-90115824D01*
X114028933Y-90201383D01*
X114248212Y-90245000D01*
X114471788Y-90245000D01*
X114691067Y-90201383D01*
X114897624Y-90115824D01*
X115083520Y-89991612D01*
X115241612Y-89833520D01*
X115365824Y-89647624D01*
X115451383Y-89441067D01*
X115495000Y-89221788D01*
X115495000Y-88998212D01*
X115451383Y-88778933D01*
X115365824Y-88572376D01*
X115300759Y-88475000D01*
X115365824Y-88377624D01*
X115451383Y-88171067D01*
X115495000Y-87951788D01*
X115495000Y-87728212D01*
X115451383Y-87508933D01*
X115365824Y-87302376D01*
X115300759Y-87205000D01*
X115365824Y-87107624D01*
X115451383Y-86901067D01*
X115495000Y-86681788D01*
X115495000Y-86458212D01*
X115451383Y-86238933D01*
X115365824Y-86032376D01*
X115300759Y-85935000D01*
X115365824Y-85837624D01*
X115451383Y-85631067D01*
X115495000Y-85411788D01*
X115495000Y-85188212D01*
X115451383Y-84968933D01*
X115405112Y-84857226D01*
X115449502Y-84774180D01*
X115485812Y-84654482D01*
X115498072Y-84530000D01*
X115498072Y-83530000D01*
X115485812Y-83405518D01*
X115449502Y-83285820D01*
X115390537Y-83175506D01*
X115311185Y-83078815D01*
X115214494Y-82999463D01*
X115104180Y-82940498D01*
X114984482Y-82904188D01*
X114860000Y-82891928D01*
X113860000Y-82891928D01*
X113735518Y-82904188D01*
X113615820Y-82940498D01*
X113505506Y-82999463D01*
X113408815Y-83078815D01*
X113329463Y-83175506D01*
X113270498Y-83285820D01*
X113234188Y-83405518D01*
X113221928Y-83530000D01*
X112885000Y-83530000D01*
X112885000Y-57885000D01*
X141115000Y-57885000D01*
X141115001Y-130115000D01*
X141115001Y-130115000D01*
G37*
X141115001Y-130115000D02*
X112885000Y-130115000D01*
X112885000Y-125210000D01*
X114451857Y-125210000D01*
X114451857Y-129030000D01*
X119736143Y-129030000D01*
X119736143Y-125210000D01*
X114451857Y-125210000D01*
X112885000Y-125210000D01*
X112885000Y-124816890D01*
X121748524Y-124816890D01*
X121793175Y-124964099D01*
X121918359Y-125226920D01*
X122092412Y-125460269D01*
X122308645Y-125655178D01*
X122558748Y-125804157D01*
X122833109Y-125901481D01*
X123063000Y-125780814D01*
X123063000Y-124587000D01*
X123317000Y-124587000D01*
X123317000Y-125780814D01*
X123546891Y-125901481D01*
X123821252Y-125804157D01*
X124071355Y-125655178D01*
X124287588Y-125460269D01*
X124461641Y-125226920D01*
X124586825Y-124964099D01*
X124631476Y-124816890D01*
X124510155Y-124587000D01*
X123317000Y-124587000D01*
X123063000Y-124587000D01*
X121869845Y-124587000D01*
X121748524Y-124816890D01*
X112885000Y-124816890D01*
X112885000Y-115107467D01*
X113044743Y-115214204D01*
X113233101Y-115292225D01*
X113433060Y-115331999D01*
X113636938Y-115331999D01*
X113836897Y-115292225D01*
X114025255Y-115214204D01*
X114194773Y-115100936D01*
X114238710Y-115056999D01*
X121910801Y-115056999D01*
X121949294Y-115129014D01*
X122134866Y-115355134D01*
X122360986Y-115540706D01*
X122415791Y-115570000D01*
X122360986Y-115599294D01*
X122134866Y-115784866D01*
X121949294Y-116010986D01*
X121811401Y-116268966D01*
X121726487Y-116548889D01*
X121697815Y-116840000D01*
X121726487Y-117131111D01*
X121811401Y-117411034D01*
X121949294Y-117669014D01*
X122134866Y-117895134D01*
X122360986Y-118080706D01*
X122415791Y-118110000D01*
X122360986Y-118139294D01*
X122134866Y-118324866D01*
X121949294Y-118550986D01*
X121912405Y-118620000D01*
X115063711Y-118620000D01*
X115019774Y-118576063D01*
X114850256Y-118462795D01*
X114661898Y-118384774D01*
X114461939Y-118345000D01*
X114258061Y-118345000D01*
X114058102Y-118384774D01*
X113869744Y-118462795D01*
X113700226Y-118576063D01*
X113556063Y-118720226D01*
X113442795Y-118889744D01*
X113364774Y-119078102D01*
X113325000Y-119278061D01*
X113325000Y-119481939D01*
X113364774Y-119681898D01*
X113442795Y-119870256D01*
X113556063Y-120039774D01*
X113700226Y-120183937D01*
X113869744Y-120297205D01*
X114058102Y-120375226D01*
X114258061Y-120415000D01*
X114461939Y-120415000D01*
X114661898Y-120375226D01*
X114850256Y-120297205D01*
X115019774Y-120183937D01*
X115063711Y-120140000D01*
X121912405Y-120140000D01*
X121949294Y-120209014D01*
X122134866Y-120435134D01*
X122360986Y-120620706D01*
X122415791Y-120650000D01*
X122360986Y-120679294D01*
X122134866Y-120864866D01*
X121949294Y-121090986D01*
X121811401Y-121348966D01*
X121726487Y-121628889D01*
X121697815Y-121920000D01*
X121726487Y-122211111D01*
X121811401Y-122491034D01*
X121949294Y-122749014D01*
X122134866Y-122975134D01*
X122360986Y-123160706D01*
X122425523Y-123195201D01*
X122308645Y-123264822D01*
X122092412Y-123459731D01*
X121918359Y-123693080D01*
X121793175Y-123955901D01*
X121748524Y-124103110D01*
X121869845Y-124333000D01*
X123063000Y-124333000D01*
X123063000Y-124313000D01*
X123317000Y-124313000D01*
X123317000Y-124333000D01*
X124510155Y-124333000D01*
X124631476Y-124103110D01*
X124586825Y-123955901D01*
X124461641Y-123693080D01*
X124287588Y-123459731D01*
X124071355Y-123264822D01*
X123954477Y-123195201D01*
X124019014Y-123160706D01*
X124245134Y-122975134D01*
X124430706Y-122749014D01*
X124568599Y-122491034D01*
X124653513Y-122211111D01*
X124682185Y-121920000D01*
X124653513Y-121628889D01*
X124568599Y-121348966D01*
X124430706Y-121090986D01*
X124245134Y-120864866D01*
X124019014Y-120679294D01*
X123964209Y-120650000D01*
X124019014Y-120620706D01*
X124245134Y-120435134D01*
X124430706Y-120209014D01*
X124568599Y-119951034D01*
X124653513Y-119671111D01*
X124682185Y-119380000D01*
X124653513Y-119088889D01*
X124568599Y-118808966D01*
X124430706Y-118550986D01*
X124245134Y-118324866D01*
X124019014Y-118139294D01*
X123964209Y-118110000D01*
X124019014Y-118080706D01*
X124245134Y-117895134D01*
X124430706Y-117669014D01*
X124568599Y-117411034D01*
X124653513Y-117131111D01*
X124682185Y-116840000D01*
X124653513Y-116548889D01*
X124568599Y-116268966D01*
X124430706Y-116010986D01*
X124245134Y-115784866D01*
X124019014Y-115599294D01*
X123964209Y-115570000D01*
X124019014Y-115540706D01*
X124245134Y-115355134D01*
X124430706Y-115129014D01*
X124568599Y-114871034D01*
X124653513Y-114591111D01*
X124682185Y-114300000D01*
X124653513Y-114008889D01*
X124568599Y-113728966D01*
X124430706Y-113470986D01*
X124245134Y-113244866D01*
X124019014Y-113059294D01*
X123964209Y-113030000D01*
X124019014Y-113000706D01*
X124245134Y-112815134D01*
X124430706Y-112589014D01*
X124568599Y-112331034D01*
X124653513Y-112051111D01*
X124682185Y-111760000D01*
X124653513Y-111468889D01*
X124568599Y-111188966D01*
X124430706Y-110930986D01*
X124245134Y-110704866D01*
X124019014Y-110519294D01*
X123964209Y-110490000D01*
X124019014Y-110460706D01*
X124245134Y-110275134D01*
X124430706Y-110049014D01*
X124568599Y-109791034D01*
X124653513Y-109511111D01*
X124682185Y-109220000D01*
X124653513Y-108928889D01*
X124568599Y-108648966D01*
X124430706Y-108390986D01*
X124245134Y-108164866D01*
X124019014Y-107979294D01*
X123964209Y-107950000D01*
X124019014Y-107920706D01*
X124245134Y-107735134D01*
X124430706Y-107509014D01*
X124568599Y-107251034D01*
X124653513Y-106971111D01*
X124682185Y-106680000D01*
X124653513Y-106388889D01*
X124568599Y-106108966D01*
X124430706Y-105850986D01*
X124245134Y-105624866D01*
X124019014Y-105439294D01*
X123964209Y-105410000D01*
X124019014Y-105380706D01*
X124245134Y-105195134D01*
X124430706Y-104969014D01*
X124568599Y-104711034D01*
X124653513Y-104431111D01*
X124682185Y-104140000D01*
X124653513Y-103848889D01*
X124568599Y-103568966D01*
X124430706Y-103310986D01*
X124245134Y-103084866D01*
X124019014Y-102899294D01*
X123964209Y-102870000D01*
X124019014Y-102840706D01*
X124245134Y-102655134D01*
X124430706Y-102429014D01*
X124568599Y-102171034D01*
X124653513Y-101891111D01*
X124682185Y-101600000D01*
X124653513Y-101308889D01*
X124568599Y-101028966D01*
X124430706Y-100770986D01*
X124245134Y-100544866D01*
X124019014Y-100359294D01*
X123964209Y-100330000D01*
X124019014Y-100300706D01*
X124245134Y-100115134D01*
X124430706Y-99889014D01*
X124568599Y-99631034D01*
X124653513Y-99351111D01*
X124682185Y-99060000D01*
X124653513Y-98768889D01*
X124568599Y-98488966D01*
X124430706Y-98230986D01*
X124245134Y-98004866D01*
X124019014Y-97819294D01*
X123964209Y-97790000D01*
X124019014Y-97760706D01*
X124245134Y-97575134D01*
X124430706Y-97349014D01*
X124568599Y-97091034D01*
X124653513Y-96811111D01*
X124682185Y-96520000D01*
X124653513Y-96228889D01*
X124568599Y-95948966D01*
X124430706Y-95690986D01*
X124245134Y-95464866D01*
X124019014Y-95279294D01*
X123964209Y-95250000D01*
X124019014Y-95220706D01*
X124245134Y-95035134D01*
X124430706Y-94809014D01*
X124568599Y-94551034D01*
X124653513Y-94271111D01*
X124682185Y-93980000D01*
X124653513Y-93688889D01*
X124568599Y-93408966D01*
X124430706Y-93150986D01*
X124245134Y-92924866D01*
X124019014Y-92739294D01*
X123964209Y-92710000D01*
X124019014Y-92680706D01*
X124245134Y-92495134D01*
X124430706Y-92269014D01*
X124568599Y-92011034D01*
X124653513Y-91731111D01*
X124682185Y-91440000D01*
X124653513Y-91148889D01*
X124568599Y-90868966D01*
X124430706Y-90610986D01*
X124245134Y-90384866D01*
X124019014Y-90199294D01*
X123964209Y-90170000D01*
X124019014Y-90140706D01*
X124245134Y-89955134D01*
X124430706Y-89729014D01*
X124568599Y-89471034D01*
X124653513Y-89191111D01*
X124682185Y-88900000D01*
X124653513Y-88608889D01*
X124568599Y-88328966D01*
X124430706Y-88070986D01*
X124245134Y-87844866D01*
X124019014Y-87659294D01*
X123964209Y-87630000D01*
X124019014Y-87600706D01*
X124245134Y-87415134D01*
X124430706Y-87189014D01*
X124568599Y-86931034D01*
X124653513Y-86651111D01*
X124682185Y-86360000D01*
X124653513Y-86068889D01*
X124568599Y-85788966D01*
X124430706Y-85530986D01*
X124245134Y-85304866D01*
X124019014Y-85119294D01*
X123964209Y-85090000D01*
X124019014Y-85060706D01*
X124245134Y-84875134D01*
X124430706Y-84649014D01*
X124568599Y-84391034D01*
X124653513Y-84111111D01*
X124682185Y-83820000D01*
X124653513Y-83528889D01*
X124568599Y-83248966D01*
X124430706Y-82990986D01*
X124245134Y-82764866D01*
X124019014Y-82579294D01*
X123964209Y-82550000D01*
X124019014Y-82520706D01*
X124245134Y-82335134D01*
X124430706Y-82109014D01*
X124568599Y-81851034D01*
X124653513Y-81571111D01*
X124682185Y-81280000D01*
X124653513Y-80988889D01*
X124568599Y-80708966D01*
X124430706Y-80450986D01*
X124245134Y-80224866D01*
X124019014Y-80039294D01*
X123964209Y-80010000D01*
X124019014Y-79980706D01*
X124245134Y-79795134D01*
X124430706Y-79569014D01*
X124568599Y-79311034D01*
X124653513Y-79031111D01*
X124682185Y-78740000D01*
X124653513Y-78448889D01*
X124568599Y-78168966D01*
X124430706Y-77910986D01*
X124245134Y-77684866D01*
X124019014Y-77499294D01*
X123964209Y-77470000D01*
X124019014Y-77440706D01*
X124245134Y-77255134D01*
X124430706Y-77029014D01*
X124568599Y-76771034D01*
X124653513Y-76491111D01*
X124682185Y-76200000D01*
X124653513Y-75908889D01*
X124568599Y-75628966D01*
X124430706Y-75370986D01*
X124245134Y-75144866D01*
X124019014Y-74959294D01*
X123964209Y-74930000D01*
X124019014Y-74900706D01*
X124245134Y-74715134D01*
X124430706Y-74489014D01*
X124568599Y-74231034D01*
X124653513Y-73951111D01*
X124682185Y-73660000D01*
X124653513Y-73368889D01*
X124568599Y-73088966D01*
X124430706Y-72830986D01*
X124245134Y-72604866D01*
X124019014Y-72419294D01*
X123964209Y-72390000D01*
X124019014Y-72360706D01*
X124245134Y-72175134D01*
X124430706Y-71949014D01*
X124568599Y-71691034D01*
X124653513Y-71411111D01*
X124682185Y-71120000D01*
X124653513Y-70828889D01*
X124568599Y-70548966D01*
X124430706Y-70290986D01*
X124245134Y-70064866D01*
X124019014Y-69879294D01*
X123964209Y-69850000D01*
X124019014Y-69820706D01*
X124245134Y-69635134D01*
X124430706Y-69409014D01*
X124568599Y-69151034D01*
X124653513Y-68871111D01*
X124682185Y-68580000D01*
X124653513Y-68288889D01*
X124568599Y-68008966D01*
X124430706Y-67750986D01*
X124245134Y-67524866D01*
X124019014Y-67339294D01*
X123964209Y-67310000D01*
X124019014Y-67280706D01*
X124245134Y-67095134D01*
X124430706Y-66869014D01*
X124568599Y-66611034D01*
X124653513Y-66331111D01*
X124682185Y-66040000D01*
X129317815Y-66040000D01*
X129346487Y-66331111D01*
X129431401Y-66611034D01*
X129569294Y-66869014D01*
X129754866Y-67095134D01*
X129980986Y-67280706D01*
X130035791Y-67310000D01*
X129980986Y-67339294D01*
X129754866Y-67524866D01*
X129569294Y-67750986D01*
X129431401Y-68008966D01*
X129346487Y-68288889D01*
X129317815Y-68580000D01*
X129346487Y-68871111D01*
X129431401Y-69151034D01*
X129569294Y-69409014D01*
X129754866Y-69635134D01*
X129980986Y-69820706D01*
X130035791Y-69850000D01*
X129980986Y-69879294D01*
X129754866Y-70064866D01*
X129569294Y-70290986D01*
X129431401Y-70548966D01*
X129346487Y-70828889D01*
X129317815Y-71120000D01*
X129346487Y-71411111D01*
X129431401Y-71691034D01*
X129569294Y-71949014D01*
X129754866Y-72175134D01*
X129980986Y-72360706D01*
X130035791Y-72390000D01*
X129980986Y-72419294D01*
X129754866Y-72604866D01*
X129569294Y-72830986D01*
X129431401Y-73088966D01*
X129346487Y-73368889D01*
X129317815Y-73660000D01*
X129346487Y-73951111D01*
X129431401Y-74231034D01*
X129569294Y-74489014D01*
X129754866Y-74715134D01*
X129980986Y-74900706D01*
X130035791Y-74930000D01*
X129980986Y-74959294D01*
X129754866Y-75144866D01*
X129569294Y-75370986D01*
X129431401Y-75628966D01*
X129346487Y-75908889D01*
X129317815Y-76200000D01*
X129346487Y-76491111D01*
X129431401Y-76771034D01*
X129569294Y-77029014D01*
X129754866Y-77255134D01*
X129980986Y-77440706D01*
X130035791Y-77470000D01*
X129980986Y-77499294D01*
X129754866Y-77684866D01*
X129569294Y-77910986D01*
X129431401Y-78168966D01*
X129346487Y-78448889D01*
X129317815Y-78740000D01*
X129346487Y-79031111D01*
X129431401Y-79311034D01*
X129569294Y-79569014D01*
X129754866Y-79795134D01*
X129980986Y-79980706D01*
X130035791Y-80010000D01*
X129980986Y-80039294D01*
X129754866Y-80224866D01*
X129569294Y-80450986D01*
X129431401Y-80708966D01*
X129346487Y-80988889D01*
X129317815Y-81280000D01*
X129346487Y-81571111D01*
X129431401Y-81851034D01*
X129569294Y-82109014D01*
X129754866Y-82335134D01*
X129980986Y-82520706D01*
X130035791Y-82550000D01*
X129980986Y-82579294D01*
X129754866Y-82764866D01*
X129569294Y-82990986D01*
X129431401Y-83248966D01*
X129346487Y-83528889D01*
X129317815Y-83820000D01*
X129346487Y-84111111D01*
X129431401Y-84391034D01*
X129569294Y-84649014D01*
X129754866Y-84875134D01*
X129980986Y-85060706D01*
X130035791Y-85090000D01*
X129980986Y-85119294D01*
X129754866Y-85304866D01*
X129569294Y-85530986D01*
X129431401Y-85788966D01*
X129346487Y-86068889D01*
X129317815Y-86360000D01*
X129346487Y-86651111D01*
X129431401Y-86931034D01*
X129569294Y-87189014D01*
X129754866Y-87415134D01*
X129980986Y-87600706D01*
X130035791Y-87630000D01*
X129980986Y-87659294D01*
X129754866Y-87844866D01*
X129569294Y-88070986D01*
X129431401Y-88328966D01*
X129346487Y-88608889D01*
X129317815Y-88900000D01*
X129346487Y-89191111D01*
X129431401Y-89471034D01*
X129569294Y-89729014D01*
X129754866Y-89955134D01*
X129980986Y-90140706D01*
X130035791Y-90170000D01*
X129980986Y-90199294D01*
X129754866Y-90384866D01*
X129569294Y-90610986D01*
X129431401Y-90868966D01*
X129346487Y-91148889D01*
X129317815Y-91440000D01*
X129346487Y-91731111D01*
X129431401Y-92011034D01*
X129569294Y-92269014D01*
X129754866Y-92495134D01*
X129980986Y-92680706D01*
X130035791Y-92710000D01*
X129980986Y-92739294D01*
X129754866Y-92924866D01*
X129569294Y-93150986D01*
X129431401Y-93408966D01*
X129346487Y-93688889D01*
X129317815Y-93980000D01*
X129346487Y-94271111D01*
X129431401Y-94551034D01*
X129569294Y-94809014D01*
X129754866Y-95035134D01*
X129980986Y-95220706D01*
X130035791Y-95250000D01*
X129980986Y-95279294D01*
X129754866Y-95464866D01*
X129569294Y-95690986D01*
X129431401Y-95948966D01*
X129346487Y-96228889D01*
X129317815Y-96520000D01*
X129346487Y-96811111D01*
X129431401Y-97091034D01*
X129569294Y-97349014D01*
X129754866Y-97575134D01*
X129980986Y-97760706D01*
X130035791Y-97790000D01*
X129980986Y-97819294D01*
X129754866Y-98004866D01*
X129569294Y-98230986D01*
X129431401Y-98488966D01*
X129346487Y-98768889D01*
X129317815Y-99060000D01*
X129346487Y-99351111D01*
X129431401Y-99631034D01*
X129569294Y-99889014D01*
X129754866Y-100115134D01*
X129980986Y-100300706D01*
X130035791Y-100330000D01*
X129980986Y-100359294D01*
X129754866Y-100544866D01*
X129569294Y-100770986D01*
X129431401Y-101028966D01*
X129346487Y-101308889D01*
X129317815Y-101600000D01*
X129346487Y-101891111D01*
X129431401Y-102171034D01*
X129569294Y-102429014D01*
X129754866Y-102655134D01*
X129980986Y-102840706D01*
X130035791Y-102870000D01*
X129980986Y-102899294D01*
X129754866Y-103084866D01*
X129569294Y-103310986D01*
X129431401Y-103568966D01*
X129346487Y-103848889D01*
X129317815Y-104140000D01*
X129346487Y-104431111D01*
X129431401Y-104711034D01*
X129569294Y-104969014D01*
X129754866Y-105195134D01*
X129980986Y-105380706D01*
X130035791Y-105410000D01*
X129980986Y-105439294D01*
X129754866Y-105624866D01*
X129569294Y-105850986D01*
X129431401Y-106108966D01*
X129346487Y-106388889D01*
X129317815Y-106680000D01*
X129346487Y-106971111D01*
X129431401Y-107251034D01*
X129569294Y-107509014D01*
X129754866Y-107735134D01*
X129980986Y-107920706D01*
X130035791Y-107950000D01*
X129980986Y-107979294D01*
X129754866Y-108164866D01*
X129569294Y-108390986D01*
X129431401Y-108648966D01*
X129346487Y-108928889D01*
X129317815Y-109220000D01*
X129346487Y-109511111D01*
X129431401Y-109791034D01*
X129569294Y-110049014D01*
X129754866Y-110275134D01*
X129980986Y-110460706D01*
X130035791Y-110490000D01*
X129980986Y-110519294D01*
X129754866Y-110704866D01*
X129569294Y-110930986D01*
X129431401Y-111188966D01*
X129346487Y-111468889D01*
X129317815Y-111760000D01*
X129346487Y-112051111D01*
X129431401Y-112331034D01*
X129569294Y-112589014D01*
X129754866Y-112815134D01*
X129980986Y-113000706D01*
X130035791Y-113030000D01*
X129980986Y-113059294D01*
X129754866Y-113244866D01*
X129569294Y-113470986D01*
X129431401Y-113728966D01*
X129346487Y-114008889D01*
X129317815Y-114300000D01*
X129346487Y-114591111D01*
X129431401Y-114871034D01*
X129569294Y-115129014D01*
X129754866Y-115355134D01*
X129980986Y-115540706D01*
X130035791Y-115570000D01*
X129980986Y-115599294D01*
X129754866Y-115784866D01*
X129569294Y-116010986D01*
X129431401Y-116268966D01*
X129346487Y-116548889D01*
X129317815Y-116840000D01*
X129346487Y-117131111D01*
X129431401Y-117411034D01*
X129569294Y-117669014D01*
X129754866Y-117895134D01*
X129980986Y-118080706D01*
X130035791Y-118110000D01*
X129980986Y-118139294D01*
X129754866Y-118324866D01*
X129569294Y-118550986D01*
X129431401Y-118808966D01*
X129346487Y-119088889D01*
X129317815Y-119380000D01*
X129346487Y-119671111D01*
X129431401Y-119951034D01*
X129569294Y-120209014D01*
X129754866Y-120435134D01*
X129980986Y-120620706D01*
X130035791Y-120650000D01*
X129980986Y-120679294D01*
X129754866Y-120864866D01*
X129569294Y-121090986D01*
X129431401Y-121348966D01*
X129346487Y-121628889D01*
X129317815Y-121920000D01*
X129346487Y-122211111D01*
X129431401Y-122491034D01*
X129569294Y-122749014D01*
X129754866Y-122975134D01*
X129980986Y-123160706D01*
X130035791Y-123190000D01*
X129980986Y-123219294D01*
X129754866Y-123404866D01*
X129569294Y-123630986D01*
X129431401Y-123888966D01*
X129346487Y-124168889D01*
X129317815Y-124460000D01*
X129346487Y-124751111D01*
X129431401Y-125031034D01*
X129569294Y-125289014D01*
X129754866Y-125515134D01*
X129980986Y-125700706D01*
X130238966Y-125838599D01*
X130518889Y-125923513D01*
X130737050Y-125945000D01*
X130882950Y-125945000D01*
X131101111Y-125923513D01*
X131381034Y-125838599D01*
X131639014Y-125700706D01*
X131865134Y-125515134D01*
X132050706Y-125289014D01*
X132087595Y-125220000D01*
X138936289Y-125220000D01*
X138980226Y-125263937D01*
X139149744Y-125377205D01*
X139338102Y-125455226D01*
X139538061Y-125495000D01*
X139741939Y-125495000D01*
X139941898Y-125455226D01*
X140130256Y-125377205D01*
X140299774Y-125263937D01*
X140443937Y-125119774D01*
X140557205Y-124950256D01*
X140635226Y-124761898D01*
X140675000Y-124561939D01*
X140675000Y-124358061D01*
X140635226Y-124158102D01*
X140557205Y-123969744D01*
X140443937Y-123800226D01*
X140299774Y-123656063D01*
X140130256Y-123542795D01*
X139941898Y-123464774D01*
X139741939Y-123425000D01*
X139538061Y-123425000D01*
X139338102Y-123464774D01*
X139149744Y-123542795D01*
X138980226Y-123656063D01*
X138936289Y-123700000D01*
X132087595Y-123700000D01*
X132050706Y-123630986D01*
X131865134Y-123404866D01*
X131639014Y-123219294D01*
X131584209Y-123190000D01*
X131639014Y-123160706D01*
X131865134Y-122975134D01*
X132050706Y-122749014D01*
X132188599Y-122491034D01*
X132273513Y-122211111D01*
X132302185Y-121920000D01*
X132273513Y-121628889D01*
X132188599Y-121348966D01*
X132050706Y-121090986D01*
X131865134Y-120864866D01*
X131639014Y-120679294D01*
X131584209Y-120650000D01*
X131639014Y-120620706D01*
X131865134Y-120435134D01*
X132050706Y-120209014D01*
X132087595Y-120140000D01*
X136710289Y-120140000D01*
X136754226Y-120183937D01*
X136923744Y-120297205D01*
X137112102Y-120375226D01*
X137312061Y-120415000D01*
X137515939Y-120415000D01*
X137715898Y-120375226D01*
X137904256Y-120297205D01*
X138073774Y-120183937D01*
X138217937Y-120039774D01*
X138331205Y-119870256D01*
X138409226Y-119681898D01*
X138449000Y-119481939D01*
X138449000Y-119278061D01*
X138409226Y-119078102D01*
X138331205Y-118889744D01*
X138217937Y-118720226D01*
X138073774Y-118576063D01*
X137904256Y-118462795D01*
X137715898Y-118384774D01*
X137515939Y-118345000D01*
X137312061Y-118345000D01*
X137112102Y-118384774D01*
X136923744Y-118462795D01*
X136754226Y-118576063D01*
X136710289Y-118620000D01*
X132087595Y-118620000D01*
X132050706Y-118550986D01*
X131865134Y-118324866D01*
X131639014Y-118139294D01*
X131584209Y-118110000D01*
X131639014Y-118080706D01*
X131865134Y-117895134D01*
X132050706Y-117669014D01*
X132188599Y-117411034D01*
X132273513Y-117131111D01*
X132302185Y-116840000D01*
X132273513Y-116548889D01*
X132188599Y-116268966D01*
X132050706Y-116010986D01*
X131865134Y-115784866D01*
X131639014Y-115599294D01*
X131584209Y-115570000D01*
X131639014Y-115540706D01*
X131865134Y-115355134D01*
X132050706Y-115129014D01*
X132188599Y-114871034D01*
X132273513Y-114591111D01*
X132302185Y-114300000D01*
X132273513Y-114008889D01*
X132250797Y-113934005D01*
X132845008Y-113339795D01*
X132874001Y-113316001D01*
X132897795Y-113287008D01*
X132897799Y-113287004D01*
X132968973Y-113200277D01*
X132968974Y-113200276D01*
X133039546Y-113068247D01*
X133083003Y-112924986D01*
X133094000Y-112813333D01*
X133094000Y-112813324D01*
X133097676Y-112776001D01*
X133094000Y-112738678D01*
X133094000Y-110804801D01*
X133410802Y-110488000D01*
X135344678Y-110488000D01*
X135382000Y-110491676D01*
X135419322Y-110488000D01*
X135419333Y-110488000D01*
X135530986Y-110477003D01*
X135674247Y-110433546D01*
X135806276Y-110362974D01*
X135922001Y-110268001D01*
X135945804Y-110238997D01*
X138886014Y-107298788D01*
X138915012Y-107274990D01*
X139009985Y-107159265D01*
X139080557Y-107027236D01*
X139124014Y-106883975D01*
X139135011Y-106772322D01*
X139135011Y-106772314D01*
X139138687Y-106734989D01*
X139135011Y-106697664D01*
X139135011Y-90129342D01*
X139308933Y-90201383D01*
X139528212Y-90245000D01*
X139751788Y-90245000D01*
X139971067Y-90201383D01*
X140177624Y-90115824D01*
X140363520Y-89991612D01*
X140521612Y-89833520D01*
X140645824Y-89647624D01*
X140731383Y-89441067D01*
X140775000Y-89221788D01*
X140775000Y-88998212D01*
X140731383Y-88778933D01*
X140645824Y-88572376D01*
X140580759Y-88475000D01*
X140645824Y-88377624D01*
X140731383Y-88171067D01*
X140775000Y-87951788D01*
X140775000Y-87728212D01*
X140731383Y-87508933D01*
X140645824Y-87302376D01*
X140580759Y-87205000D01*
X140645824Y-87107624D01*
X140731383Y-86901067D01*
X140775000Y-86681788D01*
X140775000Y-86458212D01*
X140731383Y-86238933D01*
X140645824Y-86032376D01*
X140580759Y-85935000D01*
X140645824Y-85837624D01*
X140731383Y-85631067D01*
X140775000Y-85411788D01*
X140775000Y-85188212D01*
X140731383Y-84968933D01*
X140645824Y-84762376D01*
X140542720Y-84608070D01*
X140631588Y-84593450D01*
X140722458Y-84389174D01*
X140771731Y-84171095D01*
X140777511Y-83947594D01*
X140739577Y-83727260D01*
X140659387Y-83518560D01*
X140631588Y-83466550D01*
X140418166Y-83431439D01*
X139819605Y-84030000D01*
X139833748Y-84044143D01*
X139712890Y-84165000D01*
X139567110Y-84165000D01*
X139446253Y-84044143D01*
X139460395Y-84030000D01*
X138861834Y-83431439D01*
X138648412Y-83466550D01*
X138557542Y-83670826D01*
X138508269Y-83888905D01*
X138502489Y-84112406D01*
X138540423Y-84332740D01*
X138620613Y-84541440D01*
X138647790Y-84592287D01*
X138643957Y-84593450D01*
X138640647Y-84594454D01*
X138508617Y-84665026D01*
X138424977Y-84733668D01*
X138392893Y-84759999D01*
X138369095Y-84788997D01*
X138190732Y-84967361D01*
X138145112Y-84857226D01*
X138189502Y-84774180D01*
X138225812Y-84654482D01*
X138238072Y-84530000D01*
X138238072Y-83530000D01*
X138225812Y-83405518D01*
X138189502Y-83285820D01*
X138171336Y-83251834D01*
X139041439Y-83251834D01*
X139640000Y-83850395D01*
X140238561Y-83251834D01*
X140203450Y-83038412D01*
X139999174Y-82947542D01*
X139781095Y-82898269D01*
X139557594Y-82892489D01*
X139337260Y-82930423D01*
X139128560Y-83010613D01*
X139076550Y-83038412D01*
X139041439Y-83251834D01*
X138171336Y-83251834D01*
X138130537Y-83175506D01*
X138051185Y-83078815D01*
X137954494Y-82999463D01*
X137844180Y-82940498D01*
X137724482Y-82904188D01*
X137600000Y-82891928D01*
X136600000Y-82891928D01*
X136475518Y-82904188D01*
X136355820Y-82940498D01*
X136245506Y-82999463D01*
X136148815Y-83078815D01*
X136069463Y-83175506D01*
X136010498Y-83285820D01*
X135974188Y-83405518D01*
X135961928Y-83530000D01*
X135961928Y-84530000D01*
X135974188Y-84654482D01*
X136010498Y-84774180D01*
X136054888Y-84857226D01*
X136008617Y-84968933D01*
X135965000Y-85188212D01*
X135965000Y-85411788D01*
X136008617Y-85631067D01*
X136094176Y-85837624D01*
X136159241Y-85935000D01*
X136094176Y-86032376D01*
X136008617Y-86238933D01*
X135965000Y-86458212D01*
X135965000Y-86681788D01*
X136008617Y-86901067D01*
X136094176Y-87107624D01*
X136159241Y-87205000D01*
X136094176Y-87302376D01*
X136008617Y-87508933D01*
X135965000Y-87728212D01*
X135965000Y-87951788D01*
X136008617Y-88171067D01*
X136094176Y-88377624D01*
X136159241Y-88475000D01*
X136094176Y-88572376D01*
X136008617Y-88778933D01*
X135965000Y-88998212D01*
X135965000Y-89221788D01*
X136008617Y-89441067D01*
X136094176Y-89647624D01*
X136218388Y-89833520D01*
X136376480Y-89991612D01*
X136562376Y-90115824D01*
X136768933Y-90201383D01*
X136988212Y-90245000D01*
X137165001Y-90245000D01*
X137165002Y-105981196D01*
X134686199Y-108460000D01*
X132087595Y-108460000D01*
X132050706Y-108390986D01*
X131865134Y-108164866D01*
X131639014Y-107979294D01*
X131584209Y-107950000D01*
X131639014Y-107920706D01*
X131865134Y-107735134D01*
X132050706Y-107509014D01*
X132188599Y-107251034D01*
X132273513Y-106971111D01*
X132302185Y-106680000D01*
X132273513Y-106388889D01*
X132188599Y-106108966D01*
X132050706Y-105850986D01*
X131865134Y-105624866D01*
X131639014Y-105439294D01*
X131584209Y-105410000D01*
X131639014Y-105380706D01*
X131865134Y-105195134D01*
X132050706Y-104969014D01*
X132188599Y-104711034D01*
X132273513Y-104431111D01*
X132302185Y-104140000D01*
X132273513Y-103848889D01*
X132250797Y-103774004D01*
X135385003Y-100639799D01*
X135414001Y-100616001D01*
X135472380Y-100544866D01*
X135508974Y-100500277D01*
X135579546Y-100368247D01*
X135583357Y-100355684D01*
X135623003Y-100224986D01*
X135634000Y-100113333D01*
X135634000Y-100113323D01*
X135637676Y-100076000D01*
X135634000Y-100038677D01*
X135634000Y-82490010D01*
X137436078Y-82490010D01*
X137473400Y-82493686D01*
X137510722Y-82490010D01*
X137510733Y-82490010D01*
X137622386Y-82479013D01*
X137765647Y-82435556D01*
X137897676Y-82364984D01*
X138013401Y-82270011D01*
X138037203Y-82241008D01*
X139215522Y-81062691D01*
X139308933Y-81101383D01*
X139528212Y-81145000D01*
X139751788Y-81145000D01*
X139971067Y-81101383D01*
X140177624Y-81015824D01*
X140363520Y-80891612D01*
X140521612Y-80733520D01*
X140645824Y-80547624D01*
X140731383Y-80341067D01*
X140775000Y-80121788D01*
X140775000Y-79898212D01*
X140731383Y-79678933D01*
X140645824Y-79472376D01*
X140580759Y-79375000D01*
X140645824Y-79277624D01*
X140731383Y-79071067D01*
X140775000Y-78851788D01*
X140775000Y-78628212D01*
X140731383Y-78408933D01*
X140645824Y-78202376D01*
X140580759Y-78105000D01*
X140645824Y-78007624D01*
X140731383Y-77801067D01*
X140775000Y-77581788D01*
X140775000Y-77358212D01*
X140731383Y-77138933D01*
X140645824Y-76932376D01*
X140580759Y-76835000D01*
X140645824Y-76737624D01*
X140731383Y-76531067D01*
X140775000Y-76311788D01*
X140775000Y-76088212D01*
X140731383Y-75868933D01*
X140645824Y-75662376D01*
X140542720Y-75508070D01*
X140631588Y-75493450D01*
X140722458Y-75289174D01*
X140771731Y-75071095D01*
X140777511Y-74847594D01*
X140739577Y-74627260D01*
X140659387Y-74418560D01*
X140631588Y-74366550D01*
X140418166Y-74331439D01*
X139819605Y-74930000D01*
X139833748Y-74944143D01*
X139712890Y-75065000D01*
X139567110Y-75065000D01*
X139446253Y-74944143D01*
X139460395Y-74930000D01*
X138861834Y-74331439D01*
X138648412Y-74366550D01*
X138557542Y-74570826D01*
X138508269Y-74788905D01*
X138502489Y-75012406D01*
X138540423Y-75232740D01*
X138620613Y-75441440D01*
X138648412Y-75493450D01*
X138737280Y-75508070D01*
X138634176Y-75662376D01*
X138548617Y-75868933D01*
X138505000Y-76088212D01*
X138505000Y-76311788D01*
X138548617Y-76531067D01*
X138634176Y-76737624D01*
X138699241Y-76835000D01*
X138634176Y-76932376D01*
X138548617Y-77138933D01*
X138505000Y-77358212D01*
X138505000Y-77581788D01*
X138548617Y-77801067D01*
X138622734Y-77980000D01*
X138594322Y-77980000D01*
X138556999Y-77976324D01*
X138519676Y-77980000D01*
X138519667Y-77980000D01*
X138408014Y-77990997D01*
X138264753Y-78034454D01*
X138132724Y-78105026D01*
X138073340Y-78153761D01*
X138040759Y-78105000D01*
X138105824Y-78007624D01*
X138191383Y-77801067D01*
X138235000Y-77581788D01*
X138235000Y-77358212D01*
X138191383Y-77138933D01*
X138105824Y-76932376D01*
X138040759Y-76835000D01*
X138105824Y-76737624D01*
X138191383Y-76531067D01*
X138235000Y-76311788D01*
X138235000Y-76088212D01*
X138191383Y-75868933D01*
X138145112Y-75757226D01*
X138189502Y-75674180D01*
X138225812Y-75554482D01*
X138238072Y-75430000D01*
X138238072Y-74430000D01*
X138225812Y-74305518D01*
X138189502Y-74185820D01*
X138171336Y-74151834D01*
X139041439Y-74151834D01*
X139640000Y-74750395D01*
X140238561Y-74151834D01*
X140203450Y-73938412D01*
X139999174Y-73847542D01*
X139781095Y-73798269D01*
X139557594Y-73792489D01*
X139337260Y-73830423D01*
X139128560Y-73910613D01*
X139076550Y-73938412D01*
X139041439Y-74151834D01*
X138171336Y-74151834D01*
X138130537Y-74075506D01*
X138051185Y-73978815D01*
X137954494Y-73899463D01*
X137844180Y-73840498D01*
X137724482Y-73804188D01*
X137600000Y-73791928D01*
X136600000Y-73791928D01*
X136475518Y-73804188D01*
X136355820Y-73840498D01*
X136245506Y-73899463D01*
X136148815Y-73978815D01*
X136069463Y-74075506D01*
X136010498Y-74185820D01*
X135974188Y-74305518D01*
X135961928Y-74430000D01*
X135961928Y-75430000D01*
X135974188Y-75554482D01*
X136010498Y-75674180D01*
X136054888Y-75757226D01*
X136008617Y-75868933D01*
X135991877Y-75953091D01*
X135855521Y-75994453D01*
X135723492Y-76065025D01*
X135607767Y-76159998D01*
X135583969Y-76188996D01*
X133384987Y-78387979D01*
X133384987Y-73355830D01*
X133435063Y-73430774D01*
X133579226Y-73574937D01*
X133748744Y-73688205D01*
X133937102Y-73766226D01*
X134137061Y-73806000D01*
X134340939Y-73806000D01*
X134540898Y-73766226D01*
X134729256Y-73688205D01*
X134898774Y-73574937D01*
X134942711Y-73531000D01*
X137741678Y-73531000D01*
X137779000Y-73534676D01*
X137816322Y-73531000D01*
X137816333Y-73531000D01*
X137927986Y-73520003D01*
X138071247Y-73476546D01*
X138203276Y-73405974D01*
X138319001Y-73311001D01*
X138342803Y-73281998D01*
X139579802Y-72045000D01*
X139751788Y-72045000D01*
X139971067Y-72001383D01*
X140177624Y-71915824D01*
X140363520Y-71791612D01*
X140521612Y-71633520D01*
X140645824Y-71447624D01*
X140731383Y-71241067D01*
X140775000Y-71021788D01*
X140775000Y-70798212D01*
X140731383Y-70578933D01*
X140645824Y-70372376D01*
X140580759Y-70275000D01*
X140645824Y-70177624D01*
X140731383Y-69971067D01*
X140775000Y-69751788D01*
X140775000Y-69528212D01*
X140731383Y-69308933D01*
X140645824Y-69102376D01*
X140580759Y-69005000D01*
X140645824Y-68907624D01*
X140731383Y-68701067D01*
X140775000Y-68481788D01*
X140775000Y-68258212D01*
X140731383Y-68038933D01*
X140645824Y-67832376D01*
X140580759Y-67735000D01*
X140645824Y-67637624D01*
X140731383Y-67431067D01*
X140775000Y-67211788D01*
X140775000Y-66988212D01*
X140731383Y-66768933D01*
X140645824Y-66562376D01*
X140542720Y-66408070D01*
X140631588Y-66393450D01*
X140722458Y-66189174D01*
X140771731Y-65971095D01*
X140777511Y-65747594D01*
X140739577Y-65527260D01*
X140659387Y-65318560D01*
X140631588Y-65266550D01*
X140418166Y-65231439D01*
X139819605Y-65830000D01*
X139833748Y-65844143D01*
X139712890Y-65965000D01*
X139567110Y-65965000D01*
X139446253Y-65844143D01*
X139460395Y-65830000D01*
X138861834Y-65231439D01*
X138648412Y-65266550D01*
X138557542Y-65470826D01*
X138508269Y-65688905D01*
X138502489Y-65912406D01*
X138540423Y-66132740D01*
X138620613Y-66341440D01*
X138648412Y-66393450D01*
X138737280Y-66408070D01*
X138634176Y-66562376D01*
X138548617Y-66768933D01*
X138505000Y-66988212D01*
X138505000Y-67211788D01*
X138548617Y-67431067D01*
X138634176Y-67637624D01*
X138699241Y-67735000D01*
X138634176Y-67832376D01*
X138548617Y-68038933D01*
X138505000Y-68258212D01*
X138505000Y-68481788D01*
X138548617Y-68701067D01*
X138634176Y-68907624D01*
X138699241Y-69005000D01*
X138634176Y-69102376D01*
X138548617Y-69308933D01*
X138505000Y-69528212D01*
X138505000Y-69700198D01*
X138161155Y-70044043D01*
X138191383Y-69971067D01*
X138235000Y-69751788D01*
X138235000Y-69528212D01*
X138191383Y-69308933D01*
X138105824Y-69102376D01*
X138040759Y-69005000D01*
X138105824Y-68907624D01*
X138191383Y-68701067D01*
X138235000Y-68481788D01*
X138235000Y-68258212D01*
X138191383Y-68038933D01*
X138105824Y-67832376D01*
X138040759Y-67735000D01*
X138105824Y-67637624D01*
X138191383Y-67431067D01*
X138235000Y-67211788D01*
X138235000Y-66988212D01*
X138191383Y-66768933D01*
X138145112Y-66657226D01*
X138189502Y-66574180D01*
X138225812Y-66454482D01*
X138238072Y-66330000D01*
X138238072Y-65330000D01*
X138225812Y-65205518D01*
X138189502Y-65085820D01*
X138171336Y-65051834D01*
X139041439Y-65051834D01*
X139640000Y-65650395D01*
X140238561Y-65051834D01*
X140203450Y-64838412D01*
X139999174Y-64747542D01*
X139781095Y-64698269D01*
X139557594Y-64692489D01*
X139337260Y-64730423D01*
X139128560Y-64810613D01*
X139076550Y-64838412D01*
X139041439Y-65051834D01*
X138171336Y-65051834D01*
X138130537Y-64975506D01*
X138051185Y-64878815D01*
X137954494Y-64799463D01*
X137844180Y-64740498D01*
X137724482Y-64704188D01*
X137600000Y-64691928D01*
X136600000Y-64691928D01*
X136475518Y-64704188D01*
X136355820Y-64740498D01*
X136245506Y-64799463D01*
X136148815Y-64878815D01*
X136069463Y-64975506D01*
X136010498Y-65085820D01*
X135974188Y-65205518D01*
X135961928Y-65330000D01*
X135961928Y-66330000D01*
X135962913Y-66340000D01*
X132270817Y-66340000D01*
X132273513Y-66331111D01*
X132302185Y-66040000D01*
X132273513Y-65748889D01*
X132188599Y-65468966D01*
X132050706Y-65210986D01*
X131865134Y-64984866D01*
X131835313Y-64960393D01*
X131904180Y-64939502D01*
X132014494Y-64880537D01*
X132111185Y-64801185D01*
X132190537Y-64704494D01*
X132249502Y-64594180D01*
X132285812Y-64474482D01*
X132298072Y-64350000D01*
X132298072Y-62650000D01*
X132285812Y-62525518D01*
X132249502Y-62405820D01*
X132190537Y-62295506D01*
X132111185Y-62198815D01*
X132014494Y-62119463D01*
X131904180Y-62060498D01*
X131784482Y-62024188D01*
X131660000Y-62011928D01*
X129960000Y-62011928D01*
X129835518Y-62024188D01*
X129715820Y-62060498D01*
X129605506Y-62119463D01*
X129508815Y-62198815D01*
X129429463Y-62295506D01*
X129370498Y-62405820D01*
X129334188Y-62525518D01*
X129321928Y-62650000D01*
X129321928Y-64350000D01*
X129334188Y-64474482D01*
X129370498Y-64594180D01*
X129429463Y-64704494D01*
X129508815Y-64801185D01*
X129605506Y-64880537D01*
X129715820Y-64939502D01*
X129784687Y-64960393D01*
X129754866Y-64984866D01*
X129569294Y-65210986D01*
X129431401Y-65468966D01*
X129346487Y-65748889D01*
X129317815Y-66040000D01*
X124682185Y-66040000D01*
X124653513Y-65748889D01*
X124568599Y-65468966D01*
X124430706Y-65210986D01*
X124245134Y-64984866D01*
X124215313Y-64960393D01*
X124284180Y-64939502D01*
X124394494Y-64880537D01*
X124491185Y-64801185D01*
X124570537Y-64704494D01*
X124629502Y-64594180D01*
X124665812Y-64474482D01*
X124678072Y-64350000D01*
X124678072Y-62650000D01*
X124665812Y-62525518D01*
X124629502Y-62405820D01*
X124570537Y-62295506D01*
X124491185Y-62198815D01*
X124394494Y-62119463D01*
X124284180Y-62060498D01*
X124164482Y-62024188D01*
X124040000Y-62011928D01*
X122340000Y-62011928D01*
X122215518Y-62024188D01*
X122095820Y-62060498D01*
X121985506Y-62119463D01*
X121888815Y-62198815D01*
X121809463Y-62295506D01*
X121750498Y-62405820D01*
X121714188Y-62525518D01*
X121701928Y-62650000D01*
X121701928Y-64350000D01*
X121714188Y-64474482D01*
X121750498Y-64594180D01*
X121809463Y-64704494D01*
X121888815Y-64801185D01*
X121985506Y-64880537D01*
X122095820Y-64939502D01*
X122164687Y-64960393D01*
X122134866Y-64984866D01*
X121949294Y-65210986D01*
X121811401Y-65468966D01*
X121726487Y-65748889D01*
X121697815Y-66040000D01*
X121726487Y-66331111D01*
X121729183Y-66340000D01*
X117915365Y-66340000D01*
X117982458Y-66189174D01*
X118031731Y-65971095D01*
X118037511Y-65747594D01*
X117999577Y-65527260D01*
X117919387Y-65318560D01*
X117891588Y-65266550D01*
X117678166Y-65231439D01*
X117079605Y-65830000D01*
X117093748Y-65844143D01*
X116972890Y-65965000D01*
X116827110Y-65965000D01*
X116706253Y-65844143D01*
X116720395Y-65830000D01*
X116121834Y-65231439D01*
X115908412Y-65266550D01*
X115817542Y-65470826D01*
X115768269Y-65688905D01*
X115762489Y-65912406D01*
X115800423Y-66132740D01*
X115880613Y-66341440D01*
X115908412Y-66393450D01*
X115997280Y-66408070D01*
X115894176Y-66562376D01*
X115808617Y-66768933D01*
X115765000Y-66988212D01*
X115765000Y-67211788D01*
X115808617Y-67431067D01*
X115894176Y-67637624D01*
X115959241Y-67735000D01*
X115894176Y-67832376D01*
X115808617Y-68038933D01*
X115765000Y-68258212D01*
X115765000Y-68481788D01*
X115808617Y-68701067D01*
X115894176Y-68907624D01*
X115959241Y-69005000D01*
X115894176Y-69102376D01*
X115808617Y-69308933D01*
X115765000Y-69528212D01*
X115765000Y-69751788D01*
X115808617Y-69971067D01*
X115838845Y-70044044D01*
X115495000Y-69700199D01*
X115495000Y-69528212D01*
X115451383Y-69308933D01*
X115365824Y-69102376D01*
X115300759Y-69005000D01*
X115365824Y-68907624D01*
X115451383Y-68701067D01*
X115495000Y-68481788D01*
X115495000Y-68258212D01*
X115451383Y-68038933D01*
X115365824Y-67832376D01*
X115300759Y-67735000D01*
X115365824Y-67637624D01*
X115451383Y-67431067D01*
X115495000Y-67211788D01*
X115495000Y-66988212D01*
X115451383Y-66768933D01*
X115405112Y-66657226D01*
X115449502Y-66574180D01*
X115485812Y-66454482D01*
X115498072Y-66330000D01*
X115498072Y-65330000D01*
X115485812Y-65205518D01*
X115449502Y-65085820D01*
X115431336Y-65051834D01*
X116301439Y-65051834D01*
X116900000Y-65650395D01*
X117498561Y-65051834D01*
X117463450Y-64838412D01*
X117259174Y-64747542D01*
X117041095Y-64698269D01*
X116817594Y-64692489D01*
X116597260Y-64730423D01*
X116388560Y-64810613D01*
X116336550Y-64838412D01*
X116301439Y-65051834D01*
X115431336Y-65051834D01*
X115390537Y-64975506D01*
X115311185Y-64878815D01*
X115214494Y-64799463D01*
X115104180Y-64740498D01*
X114984482Y-64704188D01*
X114860000Y-64691928D01*
X113860000Y-64691928D01*
X113735518Y-64704188D01*
X113615820Y-64740498D01*
X113505506Y-64799463D01*
X113408815Y-64878815D01*
X113329463Y-64975506D01*
X113270498Y-65085820D01*
X113234188Y-65205518D01*
X113221928Y-65330000D01*
X113221928Y-66330000D01*
X113234188Y-66454482D01*
X113270498Y-66574180D01*
X113314888Y-66657226D01*
X113268617Y-66768933D01*
X113225000Y-66988212D01*
X113225000Y-67211788D01*
X113268617Y-67431067D01*
X113354176Y-67637624D01*
X113419241Y-67735000D01*
X113354176Y-67832376D01*
X113268617Y-68038933D01*
X113225000Y-68258212D01*
X113225000Y-68481788D01*
X113268617Y-68701067D01*
X113354176Y-68907624D01*
X113419241Y-69005000D01*
X113354176Y-69102376D01*
X113268617Y-69308933D01*
X113225000Y-69528212D01*
X113225000Y-69751788D01*
X113268617Y-69971067D01*
X113354176Y-70177624D01*
X113419241Y-70275000D01*
X113354176Y-70372376D01*
X113268617Y-70578933D01*
X113225000Y-70798212D01*
X113225000Y-71021788D01*
X113268617Y-71241067D01*
X113354176Y-71447624D01*
X113478388Y-71633520D01*
X113636480Y-71791612D01*
X113822376Y-71915824D01*
X114028933Y-72001383D01*
X114248212Y-72045000D01*
X114471788Y-72045000D01*
X114691067Y-72001383D01*
X114897624Y-71915824D01*
X115083520Y-71791612D01*
X115241612Y-71633520D01*
X115256475Y-71611276D01*
X117816201Y-74171003D01*
X117839999Y-74200001D01*
X117868997Y-74223799D01*
X117955724Y-74294974D01*
X118087753Y-74365546D01*
X118231014Y-74409003D01*
X118380000Y-74423677D01*
X118417333Y-74420000D01*
X118422251Y-74420000D01*
X118466188Y-74463937D01*
X118635706Y-74577205D01*
X118824064Y-74655226D01*
X119024023Y-74695000D01*
X119128000Y-74695000D01*
X119128001Y-77940668D01*
X119124324Y-77978000D01*
X119138998Y-78126985D01*
X119182454Y-78270246D01*
X119253026Y-78402276D01*
X119291281Y-78448889D01*
X119348000Y-78518001D01*
X119376998Y-78541799D01*
X121749203Y-80914005D01*
X121726487Y-80988889D01*
X121700235Y-81255433D01*
X120959800Y-80514999D01*
X120935997Y-80485995D01*
X120820272Y-80391022D01*
X120688243Y-80320450D01*
X120544982Y-80276993D01*
X120433329Y-80265996D01*
X120433318Y-80265996D01*
X120395996Y-80262320D01*
X120358674Y-80265996D01*
X119956711Y-80265996D01*
X119912774Y-80222059D01*
X119743256Y-80108791D01*
X119554898Y-80030770D01*
X119354939Y-79990996D01*
X119151061Y-79990996D01*
X118951102Y-80030770D01*
X118762744Y-80108791D01*
X118593226Y-80222059D01*
X118449063Y-80366222D01*
X118335795Y-80535740D01*
X118257774Y-80724098D01*
X118218000Y-80924057D01*
X118218000Y-81127935D01*
X118257774Y-81327894D01*
X118335795Y-81516252D01*
X118423269Y-81647167D01*
X118399457Y-81704655D01*
X117601276Y-80906475D01*
X117623520Y-80891612D01*
X117781612Y-80733520D01*
X117905824Y-80547624D01*
X117991383Y-80341067D01*
X118035000Y-80121788D01*
X118035000Y-79898212D01*
X117991383Y-79678933D01*
X117905824Y-79472376D01*
X117840759Y-79375000D01*
X117905824Y-79277624D01*
X117991383Y-79071067D01*
X118035000Y-78851788D01*
X118035000Y-78628212D01*
X117991383Y-78408933D01*
X117905824Y-78202376D01*
X117840759Y-78105000D01*
X117905824Y-78007624D01*
X117991383Y-77801067D01*
X118035000Y-77581788D01*
X118035000Y-77358212D01*
X117991383Y-77138933D01*
X117905824Y-76932376D01*
X117840759Y-76835000D01*
X117905824Y-76737624D01*
X117991383Y-76531067D01*
X118035000Y-76311788D01*
X118035000Y-76088212D01*
X117991383Y-75868933D01*
X117905824Y-75662376D01*
X117802720Y-75508070D01*
X117891588Y-75493450D01*
X117982458Y-75289174D01*
X118031731Y-75071095D01*
X118037511Y-74847594D01*
X117999577Y-74627260D01*
X117919387Y-74418560D01*
X117891588Y-74366550D01*
X117678166Y-74331439D01*
X117079605Y-74930000D01*
X117093748Y-74944143D01*
X116972890Y-75065000D01*
X116827110Y-75065000D01*
X116706253Y-74944143D01*
X116720395Y-74930000D01*
X116121834Y-74331439D01*
X115908412Y-74366550D01*
X115817542Y-74570826D01*
X115768269Y-74788905D01*
X115762489Y-75012406D01*
X115800423Y-75232740D01*
X115880613Y-75441440D01*
X115908412Y-75493450D01*
X115997280Y-75508070D01*
X115894176Y-75662376D01*
X115808617Y-75868933D01*
X115765000Y-76088212D01*
X115765000Y-76311788D01*
X115808617Y-76531067D01*
X115894176Y-76737624D01*
X115959241Y-76835000D01*
X115894176Y-76932376D01*
X115808617Y-77138933D01*
X115765000Y-77358212D01*
X115765000Y-77581788D01*
X115808617Y-77801067D01*
X115894176Y-78007624D01*
X115959241Y-78105000D01*
X115894176Y-78202376D01*
X115808617Y-78408933D01*
X115765000Y-78628212D01*
X115765000Y-78851788D01*
X115808617Y-79071067D01*
X115838845Y-79144044D01*
X115495000Y-78800199D01*
X115495000Y-78628212D01*
X115451383Y-78408933D01*
X115365824Y-78202376D01*
X115300759Y-78105000D01*
X115365824Y-78007624D01*
X115451383Y-77801067D01*
X115495000Y-77581788D01*
X115495000Y-77358212D01*
X115451383Y-77138933D01*
X115365824Y-76932376D01*
X115300759Y-76835000D01*
X115365824Y-76737624D01*
X115451383Y-76531067D01*
X115495000Y-76311788D01*
X115495000Y-76088212D01*
X115451383Y-75868933D01*
X115405112Y-75757226D01*
X115449502Y-75674180D01*
X115485812Y-75554482D01*
X115498072Y-75430000D01*
X115498072Y-74430000D01*
X115485812Y-74305518D01*
X115449502Y-74185820D01*
X115431336Y-74151834D01*
X116301439Y-74151834D01*
X116900000Y-74750395D01*
X117498561Y-74151834D01*
X117463450Y-73938412D01*
X117259174Y-73847542D01*
X117041095Y-73798269D01*
X116817594Y-73792489D01*
X116597260Y-73830423D01*
X116388560Y-73910613D01*
X116336550Y-73938412D01*
X116301439Y-74151834D01*
X115431336Y-74151834D01*
X115390537Y-74075506D01*
X115311185Y-73978815D01*
X115214494Y-73899463D01*
X115104180Y-73840498D01*
X114984482Y-73804188D01*
X114860000Y-73791928D01*
X113860000Y-73791928D01*
X113735518Y-73804188D01*
X113615820Y-73840498D01*
X113505506Y-73899463D01*
X113408815Y-73978815D01*
X113329463Y-74075506D01*
X113270498Y-74185820D01*
X113234188Y-74305518D01*
X113221928Y-74430000D01*
X113221928Y-75430000D01*
X113234188Y-75554482D01*
X113270498Y-75674180D01*
X113314888Y-75757226D01*
X113268617Y-75868933D01*
X113225000Y-76088212D01*
X113225000Y-76311788D01*
X113268617Y-76531067D01*
X113354176Y-76737624D01*
X113419241Y-76835000D01*
X113354176Y-76932376D01*
X113268617Y-77138933D01*
X113225000Y-77358212D01*
X113225000Y-77581788D01*
X113268617Y-77801067D01*
X113354176Y-78007624D01*
X113419241Y-78105000D01*
X113354176Y-78202376D01*
X113268617Y-78408933D01*
X113225000Y-78628212D01*
X113225000Y-78851788D01*
X113268617Y-79071067D01*
X113354176Y-79277624D01*
X113419241Y-79375000D01*
X113354176Y-79472376D01*
X113268617Y-79678933D01*
X113225000Y-79898212D01*
X113225000Y-80121788D01*
X113268617Y-80341067D01*
X113354176Y-80547624D01*
X113478388Y-80733520D01*
X113636480Y-80891612D01*
X113822376Y-81015824D01*
X114028933Y-81101383D01*
X114248212Y-81145000D01*
X114471788Y-81145000D01*
X114691067Y-81101383D01*
X114785476Y-81062277D01*
X116645343Y-82922145D01*
X116597260Y-82930423D01*
X116388560Y-83010613D01*
X116336550Y-83038412D01*
X116301439Y-83251834D01*
X116900000Y-83850395D01*
X116914143Y-83836253D01*
X117093748Y-84015858D01*
X117079605Y-84030000D01*
X117093748Y-84044143D01*
X116972890Y-84165000D01*
X116827110Y-84165000D01*
X116706253Y-84044143D01*
X116720395Y-84030000D01*
X116121834Y-83431439D01*
X115908412Y-83466550D01*
X115817542Y-83670826D01*
X115768269Y-83888905D01*
X115762489Y-84112406D01*
X115800423Y-84332740D01*
X115880613Y-84541440D01*
X115908412Y-84593450D01*
X115997280Y-84608070D01*
X115894176Y-84762376D01*
X115808617Y-84968933D01*
X115765000Y-85188212D01*
X115765000Y-85411788D01*
X115808617Y-85631067D01*
X115894176Y-85837624D01*
X115959241Y-85935000D01*
X115894176Y-86032376D01*
X115808617Y-86238933D01*
X115765000Y-86458212D01*
X115765000Y-86681788D01*
X115808617Y-86901067D01*
X115894176Y-87107624D01*
X115959241Y-87205000D01*
X115894176Y-87302376D01*
X115808617Y-87508933D01*
X115765000Y-87728212D01*
X115765000Y-87951788D01*
X115808617Y-88171067D01*
X115894176Y-88377624D01*
X115959241Y-88475000D01*
X115894176Y-88572376D01*
X115808617Y-88778933D01*
X115765000Y-88998212D01*
X115765000Y-89221788D01*
X115808617Y-89441067D01*
X115894176Y-89647624D01*
X116018388Y-89833520D01*
X116176480Y-89991612D01*
X116362376Y-90115824D01*
X116568933Y-90201383D01*
X116788212Y-90245000D01*
X117011788Y-90245000D01*
X117231067Y-90201383D01*
X117437624Y-90115824D01*
X117623520Y-89991612D01*
X117781612Y-89833520D01*
X117905824Y-89647624D01*
X117991383Y-89441067D01*
X118035000Y-89221788D01*
X118035000Y-88998212D01*
X117991383Y-88778933D01*
X117905824Y-88572376D01*
X117840759Y-88475000D01*
X117905824Y-88377624D01*
X117991383Y-88171067D01*
X118035000Y-87951788D01*
X118035000Y-87728212D01*
X117991383Y-87508933D01*
X117905824Y-87302376D01*
X117840759Y-87205000D01*
X117905824Y-87107624D01*
X117991383Y-86901067D01*
X118035000Y-86681788D01*
X118035000Y-86458212D01*
X117991383Y-86238933D01*
X117905824Y-86032376D01*
X117840759Y-85935000D01*
X117905824Y-85837624D01*
X117991383Y-85631067D01*
X118035000Y-85411788D01*
X118035000Y-85188212D01*
X117991383Y-84968933D01*
X117905824Y-84762376D01*
X117802720Y-84608070D01*
X117891588Y-84593450D01*
X117982458Y-84389174D01*
X118006401Y-84283203D01*
X119636000Y-85912803D01*
X119636001Y-96228668D01*
X119632324Y-96266000D01*
X119646998Y-96414985D01*
X119690454Y-96558246D01*
X119761026Y-96690276D01*
X119832201Y-96777002D01*
X119856000Y-96806001D01*
X119884998Y-96829799D01*
X121749203Y-98694005D01*
X121726487Y-98768889D01*
X121697815Y-99060000D01*
X121726487Y-99351111D01*
X121811401Y-99631034D01*
X121949294Y-99889014D01*
X122134866Y-100115134D01*
X122360986Y-100300706D01*
X122415791Y-100330000D01*
X122360986Y-100359294D01*
X122134866Y-100544866D01*
X121949294Y-100770986D01*
X121811401Y-101028966D01*
X121726487Y-101308889D01*
X121700235Y-101575433D01*
X117473000Y-97348199D01*
X117473000Y-92524711D01*
X117516937Y-92480774D01*
X117630205Y-92311256D01*
X117708226Y-92122898D01*
X117748000Y-91922939D01*
X117748000Y-91719061D01*
X117708226Y-91519102D01*
X117630205Y-91330744D01*
X117516937Y-91161226D01*
X117372774Y-91017063D01*
X117203256Y-90903795D01*
X117014898Y-90825774D01*
X116814939Y-90786000D01*
X116611061Y-90786000D01*
X116411102Y-90825774D01*
X116222744Y-90903795D01*
X116053226Y-91017063D01*
X115909063Y-91161226D01*
X115795795Y-91330744D01*
X115717774Y-91519102D01*
X115678000Y-91719061D01*
X115678000Y-91922939D01*
X115717774Y-92122898D01*
X115795795Y-92311256D01*
X115909063Y-92480774D01*
X115953001Y-92524712D01*
X115953000Y-97625677D01*
X115949324Y-97663000D01*
X115953000Y-97700322D01*
X115953000Y-97700332D01*
X115963997Y-97811985D01*
X116007454Y-97955246D01*
X116078026Y-98087276D01*
X116117871Y-98135826D01*
X116172999Y-98203001D01*
X116202003Y-98226804D01*
X121749203Y-103774005D01*
X121726487Y-103848889D01*
X121697815Y-104140000D01*
X121726487Y-104431111D01*
X121811401Y-104711034D01*
X121949294Y-104969014D01*
X122134866Y-105195134D01*
X122360986Y-105380706D01*
X122415791Y-105410000D01*
X122360986Y-105439294D01*
X122134866Y-105624866D01*
X121949294Y-105850986D01*
X121811401Y-106108966D01*
X121726487Y-106388889D01*
X121700235Y-106655433D01*
X116584000Y-101539199D01*
X116584000Y-101033711D01*
X116627937Y-100989774D01*
X116741205Y-100820256D01*
X116819226Y-100631898D01*
X116859000Y-100431939D01*
X116859000Y-100228061D01*
X116819226Y-100028102D01*
X116741205Y-99839744D01*
X116627937Y-99670226D01*
X116483774Y-99526063D01*
X116314256Y-99412795D01*
X116125898Y-99334774D01*
X115925939Y-99295000D01*
X115722061Y-99295000D01*
X115522102Y-99334774D01*
X115333744Y-99412795D01*
X115164226Y-99526063D01*
X115020063Y-99670226D01*
X114906795Y-99839744D01*
X114828774Y-100028102D01*
X114789000Y-100228061D01*
X114789000Y-100431939D01*
X114828774Y-100631898D01*
X114906795Y-100820256D01*
X115020063Y-100989774D01*
X115064001Y-101033712D01*
X115064000Y-101816677D01*
X115060324Y-101854000D01*
X115064000Y-101891322D01*
X115064000Y-101891332D01*
X115074997Y-102002985D01*
X115116560Y-102140001D01*
X115118454Y-102146246D01*
X115189026Y-102278276D01*
X115228871Y-102326826D01*
X115283999Y-102394001D01*
X115313003Y-102417804D01*
X121749203Y-108854005D01*
X121726487Y-108928889D01*
X121697815Y-109220000D01*
X121726487Y-109511111D01*
X121811401Y-109791034D01*
X121949294Y-110049014D01*
X122134866Y-110275134D01*
X122360986Y-110460706D01*
X122415791Y-110490000D01*
X122360986Y-110519294D01*
X122134866Y-110704866D01*
X121949294Y-110930986D01*
X121811401Y-111188966D01*
X121726487Y-111468889D01*
X121697815Y-111760000D01*
X121726487Y-112051111D01*
X121811401Y-112331034D01*
X121949294Y-112589014D01*
X122134866Y-112815134D01*
X122360986Y-113000706D01*
X122415791Y-113030000D01*
X122360986Y-113059294D01*
X122134866Y-113244866D01*
X121949294Y-113470986D01*
X121914009Y-113536999D01*
X114238710Y-113536999D01*
X114194773Y-113493062D01*
X114025255Y-113379794D01*
X113836897Y-113301773D01*
X113636938Y-113261999D01*
X113433060Y-113261999D01*
X113233101Y-113301773D01*
X113044743Y-113379794D01*
X112885000Y-113486531D01*
X112885000Y-83530000D01*
X113221928Y-83530000D01*
X113221928Y-84530000D01*
X113234188Y-84654482D01*
X113270498Y-84774180D01*
X113314888Y-84857226D01*
X113268617Y-84968933D01*
X113225000Y-85188212D01*
X113225000Y-85411788D01*
X113268617Y-85631067D01*
X113354176Y-85837624D01*
X113419241Y-85935000D01*
X113354176Y-86032376D01*
X113268617Y-86238933D01*
X113225000Y-86458212D01*
X113225000Y-86681788D01*
X113268617Y-86901067D01*
X113354176Y-87107624D01*
X113419241Y-87205000D01*
X113354176Y-87302376D01*
X113268617Y-87508933D01*
X113225000Y-87728212D01*
X113225000Y-87951788D01*
X113268617Y-88171067D01*
X113354176Y-88377624D01*
X113419241Y-88475000D01*
X113354176Y-88572376D01*
X113268617Y-88778933D01*
X113225000Y-88998212D01*
X113225000Y-89221788D01*
X113268617Y-89441067D01*
X113354176Y-89647624D01*
X113478388Y-89833520D01*
X113636480Y-89991612D01*
X113822376Y-90115824D01*
X114028933Y-90201383D01*
X114248212Y-90245000D01*
X114471788Y-90245000D01*
X114691067Y-90201383D01*
X114897624Y-90115824D01*
X115083520Y-89991612D01*
X115241612Y-89833520D01*
X115365824Y-89647624D01*
X115451383Y-89441067D01*
X115495000Y-89221788D01*
X115495000Y-88998212D01*
X115451383Y-88778933D01*
X115365824Y-88572376D01*
X115300759Y-88475000D01*
X115365824Y-88377624D01*
X115451383Y-88171067D01*
X115495000Y-87951788D01*
X115495000Y-87728212D01*
X115451383Y-87508933D01*
X115365824Y-87302376D01*
X115300759Y-87205000D01*
X115365824Y-87107624D01*
X115451383Y-86901067D01*
X115495000Y-86681788D01*
X115495000Y-86458212D01*
X115451383Y-86238933D01*
X115365824Y-86032376D01*
X115300759Y-85935000D01*
X115365824Y-85837624D01*
X115451383Y-85631067D01*
X115495000Y-85411788D01*
X115495000Y-85188212D01*
X115451383Y-84968933D01*
X115405112Y-84857226D01*
X115449502Y-84774180D01*
X115485812Y-84654482D01*
X115498072Y-84530000D01*
X115498072Y-83530000D01*
X115485812Y-83405518D01*
X115449502Y-83285820D01*
X115390537Y-83175506D01*
X115311185Y-83078815D01*
X115214494Y-82999463D01*
X115104180Y-82940498D01*
X114984482Y-82904188D01*
X114860000Y-82891928D01*
X113860000Y-82891928D01*
X113735518Y-82904188D01*
X113615820Y-82940498D01*
X113505506Y-82999463D01*
X113408815Y-83078815D01*
X113329463Y-83175506D01*
X113270498Y-83285820D01*
X113234188Y-83405518D01*
X113221928Y-83530000D01*
X112885000Y-83530000D01*
X112885000Y-57885000D01*
X141115000Y-57885000D01*
X141115001Y-130115000D01*
M02*
